<svg width="29" height="29" viewBox="0 0 29 29" fill="none" xmlns="http://www.w3.org/2000/svg">
<path d="M15.9898 0C15.4029 0 14.8062 0.0397886 14.1965 0.121024C11.3059 0.503989 8.58752 2.22982 6.73899 4.85587C4.87746 7.50015 4.13934 10.7081 4.71325 13.6558C5.23188 16.3183 6.41709 18.5216 8.33553 20.3933C10.1954 22.2087 12.0586 24.0936 13.86 25.9173C14.5802 26.6467 15.3021 27.3779 16.0288 28.1073C16.0841 28.0609 16.1345 28.0195 16.1784 27.9747C16.9864 27.164 17.8009 26.3566 18.6138 25.5492C20.503 23.6725 22.4572 21.7329 24.3236 19.7716C26.933 17.0295 27.9768 13.5994 27.3427 9.85431C26.3233 3.85286 21.7727 0 15.9898 0ZM22.7336 18.9841C21.2948 20.4795 19.9145 21.9749 18.4529 23.5582C17.8107 24.2545 17.162 24.9557 16.5052 25.662L16.2775 25.9057L16.0418 25.6703C15.3622 24.9922 14.7135 24.339 14.0843 23.7024C12.7057 22.3131 11.405 21.0017 10.08 19.7318C8.00224 17.7407 6.83979 15.7596 6.42034 13.4966C5.45136 8.27437 8.71109 3.20464 13.8437 1.95627C18.8788 0.731115 24.0684 3.83297 25.4129 8.8712C26.429 12.6776 25.5283 16.0796 22.7336 18.9841Z" fill="white"/>
<path d="M10.485 11.6392C10.4883 13.1993 11.0638 14.6515 12.1076 15.7275C13.1465 16.8001 14.5414 17.3903 16.0355 17.3903H16.0485C19.1034 17.3837 21.5892 14.8289 21.5909 11.6972C21.5909 10.1471 21.0023 8.69652 19.9325 7.61394C18.8855 6.55456 17.502 5.97266 16.0306 5.97266C16.016 5.97266 16.0014 5.97266 15.9851 5.97266C12.9465 5.99752 10.4769 8.53902 10.4834 11.6392H10.485ZM13.27 8.91867C13.9919 8.17263 14.9674 7.75983 16.016 7.75485H16.0306C17.0793 7.75485 18.0613 8.16766 18.7994 8.91701C19.5277 9.65807 19.9277 10.6428 19.926 11.689C19.9228 13.8408 18.1344 15.6595 16.0192 15.6612H16.0144C13.948 15.6612 12.1856 13.8641 12.1645 11.7337C12.1547 10.6627 12.5465 9.66305 13.2684 8.91701L13.27 8.91867Z" fill="white"/>
</svg>
