<svg width="64" height="64" viewBox="0 0 64 64" fill="none" xmlns="http://www.w3.org/2000/svg">
<g clip-path="url(#clip0_1123_1669)">
<path d="M63.9811 43.4678C63.9811 44.8952 63.984 46.3241 63.9811 47.7516C63.9767 49.2274 63.4776 50.4787 62.2303 51.3707C61.4852 51.9034 60.6142 52.0695 59.7171 52.105C59.4335 52.1164 59.3221 52.2073 59.2367 52.4658C57.8767 56.5821 53.1063 57.3789 50.4513 55.6219C49.2474 54.8251 48.3808 53.7697 47.9221 52.4133C47.8469 52.1903 47.7572 52.115 47.517 52.115C39.6401 52.1207 34.9465 52.1207 27.0682 52.115C26.8309 52.115 26.7339 52.1803 26.6602 52.4047C25.8412 54.916 23.681 56.4699 20.9985 56.4897C18.4505 56.5096 16.1847 54.9089 15.3513 52.4715C15.2544 52.1874 15.1314 52.1136 14.8406 52.1122C13.8321 52.1022 12.8178 52.2031 11.8137 52.0539C10.0007 51.784 8.5987 50.3353 8.39614 48.5385C8.35273 48.155 8.33103 47.7658 8.33103 47.3795C8.32669 43.6155 8.32524 39.8529 8.33537 36.0889C8.33537 35.802 8.24856 35.6472 7.98957 35.4966C3.4232 32.8576 0.731999 28.9558 0.121414 23.7885C-0.448658 18.9734 0.998225 14.735 4.43313 11.2295C7.0708 8.5365 10.3306 6.96983 14.1229 6.5849C21.8102 5.80654 28.7784 10.3858 30.9545 17.6098C31.037 17.8826 31.173 17.9223 31.4204 17.9209C35.981 17.9152 37.3599 17.9536 41.9204 17.9024C44.3758 17.8755 46.3566 19.7475 46.3276 22.2303C46.3146 23.3311 46.3363 24.4333 46.319 25.5341C46.3146 25.8295 46.3855 25.9205 46.7009 25.919C49.45 25.9063 52.1991 25.9119 54.9482 25.9105C57.7739 25.9091 59.8473 27.2741 60.8355 29.8677C61.8831 32.6161 62.88 35.3844 63.8986 38.1442C63.9623 38.3161 63.9999 38.4922 63.9999 38.6754C63.9999 40.2719 63.9999 41.8698 63.9999 43.4663C63.9941 43.4663 63.9869 43.4663 63.9811 43.4663V43.4678ZM11.4549 36.9525C11.4476 37.0335 11.4375 37.0931 11.4375 37.1514C11.4375 40.7577 11.4346 44.364 11.4375 47.9703C11.4375 48.6351 11.873 49.0583 12.5501 49.0683C13.3025 49.0797 14.0549 49.0541 14.8058 49.0797C15.1502 49.091 15.3079 49.0015 15.4294 48.6592C16.3569 46.0557 19.1349 44.4194 21.8898 44.881C24.2077 45.2688 25.7703 46.5983 26.6081 48.7459C26.7007 48.9831 26.7962 49.0782 27.0696 49.0782C33.3809 49.0697 36.5091 49.0697 42.8204 49.0782C43.13 49.0782 43.2082 48.9987 43.2082 48.6976C43.2053 39.8643 43.2125 31.0295 43.2168 22.1962C43.2168 21.3639 42.8175 20.9705 41.9711 20.969C37.5696 20.9676 36.3528 20.9705 31.9514 20.9619C31.6751 20.9619 31.5969 21.0258 31.6099 21.3014C31.6722 22.6465 31.6013 23.9887 31.2786 25.2998C29.8853 30.9514 26.3795 34.7694 20.8278 36.7494C18.5113 37.576 16.1037 37.7351 13.6613 37.3928C12.9205 37.2891 12.1957 37.1158 11.4549 36.9511V36.9525ZM3.08608 22.0343C3.09187 28.6291 8.33103 34.1302 15.1155 34.4697C22.5944 34.8447 28.272 29.0964 28.5136 22.4917C28.7813 15.1654 22.7724 9.50235 15.7839 9.52082C8.85914 9.53928 3.07595 15.0574 3.08753 22.0343H3.08608ZM46.3363 39.012C46.3363 41.9764 46.3363 44.9407 46.3363 47.905C46.3363 48.2786 46.2075 48.7771 46.4 48.9916C46.6214 49.2373 47.1422 49.0328 47.53 49.0754C47.8006 49.1052 47.899 48.9944 47.9829 48.7501C49.0174 45.7787 52.2613 44.1453 55.3171 45.0728C57.2328 45.6537 58.5032 46.9207 59.2179 48.7473C59.2671 48.8723 59.2367 49.0541 59.4813 49.0782C60.3378 49.162 60.8717 48.7231 60.8732 47.8894C60.8761 44.9734 60.8746 42.0573 60.8732 39.1413C60.8732 38.9978 60.8645 38.8459 60.8167 38.7138C59.8444 36.0662 58.8765 33.4172 57.881 30.7781C57.4455 29.6248 56.4139 28.9643 55.1609 28.9629C52.351 28.9615 49.5397 28.9686 46.7299 28.953C46.3913 28.9515 46.3291 29.0481 46.3305 29.3563C46.3421 32.5749 46.3378 35.7935 46.3378 39.012H46.3363ZM21.0318 47.8993C19.4359 47.8908 18.1756 49.1137 18.1612 50.6833C18.1467 52.1889 19.4214 53.4402 20.9782 53.4516C22.5582 53.4629 23.8315 52.2428 23.8503 50.6975C23.8691 49.1677 22.5988 47.9064 21.0318 47.8979V47.8993ZM56.4254 50.6577C56.4515 49.1095 55.0798 47.807 53.4376 47.8922C52.1369 47.9604 50.6509 49.0697 50.7754 50.9063C50.8708 52.3337 52.1499 53.5197 53.7284 53.4558C55.2433 53.3947 56.4674 52.1434 56.4254 50.6577Z" fill="white"/>
<path d="M31.1701 40.1415C27.8915 40.1415 24.6128 40.1415 21.3342 40.1415C20.5138 40.1415 19.9061 39.7182 19.7094 39.0265C19.4272 38.035 20.1738 37.0976 21.2633 37.0948C23.4076 37.0891 25.5533 37.0933 27.6976 37.0933C32.1352 37.0933 33.3896 37.0933 37.8272 37.0933C38.6563 37.0933 39.277 37.5336 39.4608 38.2438C39.7125 39.2125 38.9833 40.1329 37.9343 40.1386C35.8016 40.15 36.852 40.1429 34.7208 40.1429C33.5372 40.1429 32.3537 40.1429 31.1716 40.1429L31.1701 40.1415Z" fill="white"/>
<path d="M37.8576 30.4006C38.7995 30.4034 39.4998 31.0355 39.5172 31.8934C39.536 32.7513 38.8169 33.443 37.8677 33.4458C35.6251 33.4544 36.5641 33.4544 34.3214 33.4458C33.3882 33.4416 32.6836 32.7712 32.6807 31.9218C32.6792 31.0497 33.3853 30.4034 34.3475 30.4006C35.4688 30.3977 36.7479 30.3977 37.8576 30.4006Z" fill="white"/>
<path d="M24.0804 17.4873C24.0905 17.9972 23.8359 18.3778 23.4814 18.7244C21.2286 20.9288 18.983 23.1375 16.7346 25.3448C16.0025 26.0635 15.2732 26.785 14.5382 27.4995C13.7612 28.2537 12.8699 28.2509 12.1031 27.4995C10.7517 26.1743 9.40322 24.8462 8.04893 23.5224C7.56712 23.0509 7.40362 22.4998 7.62355 21.8649C7.98961 20.8095 9.35547 20.5169 10.1918 21.3194C11.1597 22.2512 12.119 23.1929 13.0653 24.146C13.2678 24.3491 13.3706 24.3448 13.5717 24.146C16.1529 21.5978 18.7443 19.061 21.3299 16.5172C21.7697 16.0839 22.2732 15.8695 22.8997 16.0172C23.6145 16.1848 24.0833 16.77 24.0818 17.4901L24.0804 17.4873Z" fill="white"/>
<path d="M53.2999 40.1416C52.0802 40.1416 50.8605 40.1444 49.6393 40.1416C48.5744 40.1388 47.945 39.5195 47.9436 38.467C47.9407 36.3378 47.9407 34.2087 47.9436 32.0796C47.945 30.9987 48.5614 30.4007 49.6639 30.4007C50.982 30.4007 52.3016 30.3978 53.6197 30.4007C54.9957 30.4049 56.0707 31.1208 56.5395 32.3892C57.2485 34.3081 57.9372 36.2327 58.6216 38.1602C58.9587 39.109 58.2251 40.1203 57.1819 40.1359C55.8884 40.1558 54.5935 40.1402 53.2999 40.1402V40.143V40.1416ZM52.9744 37.0921C53.5401 37.0921 54.1059 37.0835 54.6716 37.0963C54.9045 37.1006 54.9364 37.0409 54.8582 36.8307C54.4676 35.7782 54.087 34.72 53.7123 33.6619C53.6544 33.4971 53.5633 33.4445 53.3896 33.4474C52.7009 33.4559 52.0122 33.4573 51.3235 33.4474C51.1209 33.4445 51.0442 33.4999 51.0457 33.7101C51.0544 34.7484 51.0573 35.7867 51.0457 36.825C51.0428 37.0665 51.1441 37.1006 51.3524 37.0963C51.8936 37.085 52.4347 37.0921 52.9758 37.0935L52.9744 37.0921Z" fill="white"/>
</g>
<defs>
<clipPath id="clip0_1123_1669">
<rect width="64" height="64" fill="white" transform="translate(0.03125 -0.5)"/>
</clipPath>
</defs>
</svg>
