<svg width="64" height="65" viewBox="0 0 64 65" fill="none" xmlns="http://www.w3.org/2000/svg">
<g clip-path="url(#clip0_1023_3932)">
<g clip-path="url(#clip1_1023_3932)">
<path d="M4.00003 53.9149C4.41003 52.9458 5.14654 52.5672 6.1723 52.6619C6.62255 52.7024 7.08026 52.6619 7.5335 52.6709C7.75863 52.6754 7.85703 52.5838 7.84212 52.3569C7.83318 52.2247 7.84212 52.091 7.84212 51.9587C7.84212 42.9139 7.84212 33.8692 7.84511 24.8229C7.84511 24.5014 7.81529 24.1738 7.93754 23.8613C8.20442 23.1792 8.80526 22.7645 9.58352 22.7615C11.3845 22.7555 13.1856 22.7585 14.9866 22.7585C20.6968 22.7585 26.407 22.7585 32.1173 22.7585C32.7867 22.7585 32.7107 22.8441 32.7107 22.1801C32.7121 16.7652 32.7107 11.3504 32.7121 5.934C32.7121 4.66142 33.2951 4.06645 34.5564 4.02738C34.5996 4.02738 34.6444 4.02738 34.6876 4.02738C35.9907 4.02738 37.2937 4.02438 38.5968 4.03039C39.9595 4.0364 40.5723 4.65691 40.5723 6.04368C40.5752 11.43 40.5782 16.8148 40.5648 22.2011C40.5648 22.6263 40.6349 22.7961 41.1075 22.775C42.0423 22.733 42.0438 22.7645 42.0438 21.827C42.0438 16.6029 42.0438 11.3804 42.0438 6.15636C42.0438 5.96405 42.0393 5.77173 42.0527 5.58092C42.1079 4.78312 42.67 4.13256 43.4617 4.08147C45.1121 3.9748 46.7685 3.98381 48.419 4.07396C49.3031 4.12204 49.8175 4.72302 49.8875 5.60496C49.901 5.76572 49.9024 5.92949 49.9024 6.09176C49.9024 11.448 49.9024 16.8043 49.9039 22.1605C49.9039 22.8682 49.8383 22.7555 50.5212 22.76C51.4142 22.766 52.3103 22.8036 53.2004 22.7495C54.2037 22.6879 55.1728 23.3655 55.1684 24.6997C55.1385 33.7595 55.1535 42.8193 55.1549 51.8791C55.1549 52.0113 55.1684 52.1465 55.152 52.2773C55.1162 52.5913 55.2504 52.6934 55.5545 52.6784C55.963 52.6574 56.3775 52.7055 56.783 52.6664C57.8177 52.5672 58.5841 52.9173 58.9985 53.9179V54.7142C58.5975 55.7224 57.8282 56.0048 56.7979 56.0033C39.9312 55.9868 23.0659 55.9868 6.19913 56.0033C5.1704 56.0033 4.3981 55.7254 3.99854 54.7142V53.9179L4.00003 53.9149ZM31.5224 26.112C24.9489 26.112 18.3755 26.112 11.8005 26.112C11.3761 26.112 11.1634 26.3198 11.1624 26.7355C11.1624 35.1748 11.1624 43.6141 11.1624 52.0534C11.1624 52.142 11.1699 52.2307 11.1624 52.3193C11.1356 52.5868 11.2489 52.6829 11.5172 52.6754C12.0883 52.6604 12.6608 52.6439 13.2288 52.6799C13.6314 52.7055 13.7134 52.5567 13.7119 52.1796C13.6999 47.812 13.7059 43.4458 13.7044 39.0782C13.7044 37.6328 14.3172 37.0018 15.7589 37.0018C20.3852 36.9988 25.0115 37.0003 29.6379 37.0018C31.008 37.0018 31.6148 37.6163 31.6148 39C31.6148 43.3527 31.6148 47.7053 31.6148 52.0579C31.6148 52.4666 31.8096 52.6709 32.1993 52.6709C38.5685 52.6709 44.9362 52.6664 51.3054 52.6799C51.7229 52.6799 51.8466 52.5747 51.8451 52.145C51.8332 43.6471 51.8317 35.1478 51.8466 26.6499C51.8466 26.1901 51.7154 26.103 51.2845 26.103C44.6962 26.118 38.1078 26.1135 31.5194 26.1135L31.5224 26.112ZM17.0292 46.4733C17.0292 48.3904 17.0366 50.306 17.0217 52.2232C17.0187 52.5717 17.1201 52.6769 17.4675 52.6754C20.9488 52.6634 24.4316 52.6634 27.9129 52.6754C28.2498 52.6754 28.3303 52.5612 28.3303 52.2427C28.3214 48.4235 28.3214 44.6057 28.3303 40.7865C28.3303 40.4484 28.2439 40.3252 27.886 40.3267C24.4182 40.3387 20.9518 40.3402 17.4839 40.3267C17.1067 40.3267 17.0202 40.4574 17.0232 40.812C17.0381 42.6991 17.0307 44.5862 17.0307 46.4733H17.0292ZM37.2654 15.0885H37.2624C37.2624 12.7747 37.2669 10.4594 37.2609 8.14562C37.258 7.22611 37.3817 7.38387 36.4722 7.3388C36.0414 7.31626 35.9802 7.48904 35.9802 7.86916C35.9907 12.5568 35.9877 17.2445 35.9877 21.9321C35.9877 22.7645 35.9877 22.745 36.8122 22.7675C37.1819 22.778 37.2758 22.6653 37.2744 22.2972C37.258 19.8948 37.2654 17.4924 37.2654 15.0885ZM46.5986 15.0419C46.5986 12.6395 46.5896 10.2355 46.6075 7.8331C46.6105 7.44096 46.4972 7.28321 46.1125 7.34781C46.0842 7.35232 46.0544 7.34781 46.0246 7.34781C45.2776 7.36284 45.3387 7.2201 45.3372 8.01941C45.3358 12.6635 45.3372 17.3076 45.3372 21.9517C45.3372 22.763 45.3372 22.742 46.1453 22.766C46.5166 22.7765 46.609 22.6578 46.6075 22.2942C46.5926 19.8768 46.6001 17.4593 46.6001 15.0404L46.5986 15.0419Z" fill="white"/>
<path d="M22.6678 19.2142C25.0681 19.2142 27.4685 19.2052 29.8689 19.2172C31.1451 19.2247 31.901 20.2779 31.5104 21.4679C31.2883 22.1455 30.6531 22.5481 29.769 22.5511C27.6325 22.5556 25.496 22.5526 23.3581 22.5526C20.7967 22.5526 18.2353 22.5526 15.6739 22.5526C14.9672 22.5526 14.3469 22.3844 13.9519 21.7128C13.3928 20.7647 13.9191 19.5012 14.9895 19.2758C15.2162 19.2277 15.4532 19.2172 15.6858 19.2157C18.0131 19.2112 20.3404 19.2127 22.6663 19.2127L22.6678 19.2142Z" fill="white"/>
<path d="M46.0128 37.0083C46.7732 37.0083 47.5351 36.9887 48.2954 37.0143C49.0334 37.0383 49.6253 37.4966 49.8266 38.1396C50.0383 38.8172 49.8341 39.4993 49.2809 39.9741C48.9738 40.2371 48.607 40.3287 48.2209 40.3302C46.7419 40.3377 45.2644 40.3573 43.7854 40.3272C42.5166 40.3017 41.7727 39.2665 42.1379 38.1096C42.3467 37.4515 42.9743 37.0173 43.772 37.0053C44.5189 36.9933 45.2644 37.0023 46.0113 37.0023C46.0113 37.0038 46.0113 37.0068 46.0113 37.0083H46.0128Z" fill="white"/>
<path d="M37.5844 37.0036C38.3149 37.0036 39.0469 36.9916 39.7775 37.0066C40.5766 37.0231 41.1819 37.4844 41.3862 38.201C41.586 38.8997 41.3266 39.6118 40.7108 40.0641C40.4499 40.2549 40.1472 40.324 39.8416 40.324C38.3209 40.33 36.7986 40.3586 35.2809 40.303C34.1254 40.2609 33.462 39.1506 33.8556 38.0523C34.0732 37.4483 34.6502 37.0276 35.3465 37.0111C36.0919 36.9931 36.8374 37.0066 37.5844 37.0066C37.5844 37.0066 37.5844 37.0036 37.5844 37.0021V37.0036Z" fill="white"/>
</g>
</g>
<defs>
<clipPath id="clip0_1023_3932">
<rect width="64" height="64" fill="white" transform="translate(0 0.5)"/>
</clipPath>
<clipPath id="clip1_1023_3932">
<rect width="55" height="52" fill="white" transform="translate(4 4)"/>
</clipPath>
</defs>
</svg>
