<svg width="64" height="65" viewBox="0 0 64 65" fill="none" xmlns="http://www.w3.org/2000/svg">
<path d="M33.4257 7C34.2429 7.09751 35.063 7.17729 35.8772 7.29697C40.1448 7.9234 44.0178 9.53086 47.4742 12.0986C50.9674 14.693 53.6701 17.9597 55.5261 21.9044C56.7245 24.4515 57.49 27.1198 57.8121 29.9225C58.4357 35.3417 57.4959 40.4714 54.9276 45.2761C52.5958 49.6375 49.2592 53.0548 44.9724 55.5398C42.218 57.137 39.2582 58.1579 36.1255 58.6794C35.2315 58.8286 34.3257 58.8966 33.4243 59.0015H30.5797C29.7448 58.9025 28.9084 58.8257 28.078 58.6986C23.5695 58.0131 19.5162 56.2608 15.9328 53.4419C12.441 50.6938 9.81665 47.2691 8.06706 43.187C7.10065 40.9324 6.48149 38.5788 6.19334 36.1366C5.97021 34.247 5.93031 32.3573 6.11503 30.4706C6.42239 27.3281 7.26763 24.3259 8.67439 21.4937C10.6693 17.4795 13.5124 14.1848 17.1918 11.6273C20.3068 9.46289 23.7395 8.05637 27.481 7.39891C28.5109 7.21423 29.5527 7.164 30.5812 7C31.5299 7 32.4771 7 33.4257 7ZM32.0648 10.37C19.8886 10.4025 9.45018 20.0325 9.39255 32.9749C9.33787 45.1815 19.0936 55.3906 31.6643 55.6034C43.8952 55.8102 54.4888 46.1093 54.6159 33.1492C54.7341 20.9855 45.0493 10.5503 32.0663 10.3715L32.0648 10.37Z" fill="white"/>
<path d="M25.2734 48.6582C23.9715 48.7277 22.714 47.2236 23.4174 45.7905C27.8652 36.7235 32.2702 27.6357 36.6915 18.5554C37.1732 17.567 37.884 17.1902 38.8962 17.3675C39.873 17.5404 40.5852 18.2865 40.6813 19.2424C40.7256 19.6797 40.5616 20.0638 40.3754 20.4435C38.3687 24.542 36.362 28.6404 34.3597 32.7403C31.9585 37.6557 29.5587 42.5712 27.1648 47.4911C26.7851 48.2726 26.1762 48.6508 25.2734 48.6582Z" fill="white"/>
<path d="M17.3013 26.7256C17.3353 25.6102 17.2643 24.4947 17.3574 23.3792C17.548 21.1261 18.711 19.7107 20.9098 19.1597C22.6003 18.7371 24.2908 18.7755 25.9339 19.3961C27.6747 20.0535 28.5982 21.3743 28.7416 23.1901C28.9248 25.5304 28.9189 27.8795 28.7563 30.2198C28.5938 32.5556 27.3304 33.9548 25.0459 34.4512C23.4573 34.7954 21.8747 34.7747 20.3158 34.231C18.6061 33.6356 17.5259 32.2143 17.3707 30.3734C17.2688 29.156 17.3382 27.9401 17.3027 26.7227L17.3013 26.7256ZM24.9941 26.7508C24.9941 26.7508 24.9882 26.7508 24.9867 26.7508C24.9867 25.8377 25.0015 24.9246 24.9823 24.0116C24.9602 22.9966 24.4858 22.413 23.5061 22.2667C22.4614 22.1101 21.2098 22.379 21.2098 24.019C21.2098 25.9633 21.2216 27.9076 21.2305 29.8504C21.2334 30.3616 21.458 30.7827 21.8821 31.0398C22.5958 31.4741 23.3657 31.4594 24.1134 31.1284C24.7887 30.8285 24.969 30.205 24.9867 29.5402C25.0119 28.6108 24.9927 27.6815 24.9927 26.7508H24.9941Z" fill="white"/>
<path d="M34.9434 39.1652C34.9434 38.1014 34.9124 37.0377 34.9494 35.9739C35.0351 33.4682 36.3384 31.9198 38.7987 31.4337C40.4434 31.1087 42.0822 31.1442 43.6648 31.7854C45.2356 32.4207 46.1384 33.641 46.2995 35.2677C46.5537 37.8252 46.5108 40.3989 46.3172 42.9622C46.1798 44.7854 44.81 46.2924 42.8328 46.7622C41.1305 47.167 39.4268 47.1537 37.757 46.5169C35.9763 45.8373 35.1222 44.4677 34.9671 42.6593C34.8681 41.5025 34.9479 40.3294 34.9479 39.1637C34.9464 39.1637 34.9434 39.1637 34.942 39.1637L34.9434 39.1652ZM38.7987 39.0928C38.7987 39.0928 38.8017 39.0928 38.8032 39.0928C38.8032 40.0398 38.7884 40.9854 38.8076 41.9324C38.8327 43.1809 39.4341 43.6876 40.8217 43.6655C41.9477 43.6477 42.5683 42.9991 42.5698 41.8394C42.5698 40.0472 42.5698 38.2566 42.5698 36.4644C42.5698 35.2367 41.93 34.5896 40.7064 34.5748C39.4445 34.5585 38.8298 35.1392 38.8046 36.4068C38.7869 37.3021 38.8017 38.1989 38.8017 39.0943L38.7987 39.0928Z" fill="white"/>
</svg>
