<svg width="64" height="65" viewBox="0 0 64 65" fill="none" xmlns="http://www.w3.org/2000/svg">
<g clip-path="url(#clip0_1023_3921)">
<g clip-path="url(#clip1_1023_3921)">
<path d="M52.5015 32.7968C52.5939 32.6947 52.6864 32.5941 52.7788 32.492C53.4197 31.7954 53.9864 31.1552 54.4213 30.3504C55.1744 28.9603 55.1911 27.5458 54.4698 26.145C54.2592 25.7349 53.9925 25.328 53.6561 24.9027C53.103 24.2031 52.4894 23.5598 51.8969 22.9364L51.706 22.7367C51.0453 22.0432 50.7999 21.2246 50.9317 20.1638C50.9559 19.9686 50.9817 19.7735 51.0075 19.5784C51.1181 18.7264 51.2332 17.8438 51.2499 16.9963V16.9841C51.2529 14.713 50.3256 13.2375 48.4149 12.4708C48.0482 12.3245 47.6921 12.2101 47.3587 12.1339C46.4026 11.9144 45.4283 11.7102 44.4874 11.5105L44.4055 11.4922C43.6146 11.3245 43.0433 10.9084 42.6585 10.2195C42.5069 9.94814 42.3554 9.67682 42.2039 9.40702C42.0402 9.11741 41.8781 8.82628 41.716 8.53514C41.2538 7.70594 40.7811 6.90418 40.0765 6.21674C39.0567 5.22292 37.8445 4.83271 36.4717 5.05982C35.7307 5.18176 35.0504 5.44851 34.5413 5.66648C34.1943 5.81586 33.8518 5.97743 33.52 6.1329C32.9518 6.40117 32.4154 6.6542 31.8532 6.84931C31.2729 7.05051 30.7244 7.05204 30.1728 6.85388C29.7804 6.71212 29.3637 6.53988 28.903 6.32649C28.7439 6.25332 28.5863 6.17863 28.4288 6.10394C27.7636 5.78995 27.0756 5.46375 26.3301 5.24121C24.327 4.64217 22.6602 5.17872 21.3753 6.83407C21.1086 7.17855 20.854 7.56114 20.6207 7.97269L19.3115 10.2789C18.9494 10.916 18.419 11.3078 17.6887 11.477L17.5023 11.5197C17.2811 11.5715 17.0599 11.6233 16.8371 11.669C16.6068 11.7163 16.3765 11.7605 16.1462 11.8032C15.3795 11.948 14.5885 12.0989 13.8127 12.3824C12.255 12.9525 11.2822 13.9737 10.9216 15.4187C10.7519 16.097 10.714 16.8363 10.8034 17.7493C10.8852 18.5922 10.9837 19.4443 11.0792 20.2674L11.0943 20.4015C11.1943 21.2765 10.9792 21.9868 10.4367 22.5751C10.1958 22.8343 9.9579 23.0964 9.72001 23.3586C9.52454 23.5735 9.32907 23.7869 9.13209 24.0018C8.57751 24.6039 8.0002 25.2594 7.56987 26.0611C6.81225 27.4695 6.81225 28.8947 7.56836 30.2971C7.86383 30.8458 8.24113 31.3701 8.75631 31.9448C9.06694 32.2908 9.37908 32.6368 9.69122 32.9813C9.95336 33.2709 10.214 33.559 10.4746 33.8486C10.9534 34.3821 11.161 34.9765 11.1095 35.667C11.0837 36.0191 11.0595 36.3347 11.0246 36.6532C10.9974 36.9078 10.9655 37.1639 10.9337 37.4184C10.8367 38.1958 10.7367 39.0006 10.7716 39.8313C10.8367 41.3815 11.4307 42.5552 12.5414 43.3265C11.5247 45.0855 10.5004 46.8689 9.50787 48.5989L8.76237 49.8991C8.67903 50.0454 8.59418 50.1917 8.50933 50.3381C8.29113 50.713 8.06536 51.1017 7.85474 51.4965C7.61381 51.9477 7.58806 52.469 7.78504 52.9248C7.9805 53.3775 8.37144 53.7113 8.85783 53.8393C9.26846 53.9475 9.63667 53.8485 9.8579 53.789L16.4053 52.0178L16.9614 54.0939C17.3735 55.6318 17.7842 57.1698 18.1933 58.7093C18.3857 59.4364 18.8539 59.7519 19.2115 59.8906C19.4055 59.9653 19.5994 60.0019 19.7873 60.0019C20.351 60.0019 20.8677 59.6772 21.2116 59.0767C22.7026 56.4778 24.1936 53.8789 25.6831 51.2801C26.4786 51.1414 27.206 50.8319 27.8302 50.5499L28.1863 50.3884C28.7455 50.1353 29.3061 49.8823 29.8682 49.6323C30.6213 49.2985 31.3562 49.2894 32.1169 49.6049C32.5972 49.8046 33.0821 50.0286 33.5518 50.2466C33.7382 50.3335 33.923 50.4189 34.1109 50.5042C34.8352 50.835 35.5535 51.1429 36.3641 51.2801C36.9823 52.3623 37.6021 53.443 38.2218 54.5252L39.334 56.4656C39.8431 57.3543 40.3522 58.2414 40.8614 59.13C41.2023 59.726 41.7432 60.0354 42.3842 59.9943C43.0706 59.9516 43.61 59.5004 43.8267 58.784C43.8449 58.723 43.8616 58.6606 43.8782 58.5996L44.2934 57.0464C44.7328 55.4002 45.1874 53.7021 45.6329 52.0102C46.0526 52.1276 46.4754 52.2404 46.886 52.3516L48.8073 52.8714C49.9801 53.19 51.1529 53.507 52.3272 53.8195C52.9197 53.9765 53.5197 53.8225 53.9334 53.4079C54.3334 53.0055 54.4834 52.4263 54.3334 51.8593C54.2743 51.6337 54.1667 51.4477 54.0804 51.2999L54.0667 51.2755C52.5727 48.6919 51.0287 46.0259 49.471 43.3478C50.265 42.8006 50.7984 42.043 51.0559 41.0888C51.2196 40.4852 51.2787 39.8329 51.2363 39.0936C51.1878 38.2369 51.0756 37.3864 50.9681 36.5648L50.9317 36.2889C50.7847 35.1595 51.0362 34.315 51.7242 33.6306C51.9984 33.3578 52.2575 33.0727 52.5075 32.7968H52.5015ZM47.7421 36.4383C47.8073 37.0343 47.8694 37.6303 47.933 38.2263L48.0179 39.0204C48.0497 39.3222 48.0467 39.6423 48.0088 39.999C47.9648 40.4151 47.7891 40.6666 47.4194 40.8434C46.8648 41.1071 46.2466 41.2291 45.592 41.3571L45.1995 41.4333C44.5222 41.5644 43.8222 41.7001 43.1312 41.9074C41.8342 42.2945 40.7917 43.0948 40.034 44.2852C39.7204 44.7776 39.4401 45.2867 39.1703 45.7775C39.0264 46.0396 38.8809 46.3034 38.7324 46.5625C38.5082 46.9527 38.2582 47.3642 37.9521 47.7255C37.6112 48.1279 37.2672 48.2376 36.7687 48.105C36.1459 47.9389 35.5595 47.6615 34.9383 47.3658C34.7655 47.2835 34.5913 47.2011 34.417 47.1219C33.6109 46.753 32.8139 46.4055 31.9199 46.2332C30.494 45.9558 29.2243 46.3979 28.3939 46.7545C27.9136 46.9603 27.4348 47.1783 26.9711 47.3901C26.6317 47.5456 26.2923 47.6996 25.9513 47.8505C25.6453 47.9846 25.3195 48.0837 24.9831 48.1447C24.6588 48.2026 24.4088 48.1172 24.1467 47.8566C23.7982 47.5106 23.5406 47.0868 23.2421 46.5701C23.0648 46.2637 22.892 45.9543 22.7193 45.6449C22.5026 45.2562 22.2784 44.8522 22.045 44.459C21.195 43.0247 19.8888 42.1025 18.1645 41.7168C17.7948 41.6345 17.422 41.5629 17.0614 41.4943C16.3886 41.3647 15.7537 41.2443 15.131 41.0553C15.1082 41.0492 15.0855 41.0431 15.0597 41.037C14.1112 40.7444 13.9082 40.4593 13.9233 39.4579C13.9415 38.7781 14.0263 38.1074 14.1142 37.3971C14.1521 37.0892 14.1915 36.7813 14.2248 36.4718C14.4264 34.5879 13.9445 32.9843 12.7929 31.707C12.555 31.4448 12.3171 31.1811 12.0792 30.919C11.7307 30.5348 11.3822 30.1507 11.0352 29.7636C10.7549 29.4511 10.5291 29.1462 10.3458 28.8338C10.0897 28.3978 10.0897 28.0274 10.3458 27.59C10.6579 27.0549 11.0913 26.587 11.5095 26.1328L11.5913 26.0444C12.0095 25.5917 12.4414 25.1237 12.8581 24.6497C13.9597 23.3937 14.4203 21.8343 14.2294 20.0159C14.1748 19.5037 14.1203 18.9916 14.0657 18.4794L13.9445 17.3454C13.9097 17.0222 13.9188 16.6915 13.9703 16.3363C14.0233 15.969 14.2021 15.7388 14.5673 15.5681C15.131 15.3059 15.7552 15.1855 16.4174 15.059L16.5326 15.0361C17.1523 14.9172 17.8539 14.7816 18.5357 14.6048C20.0161 14.2222 21.1768 13.3655 21.9859 12.0562C22.2587 11.6157 22.5087 11.1615 22.7496 10.7225C22.9769 10.3079 23.2118 9.88107 23.4603 9.47866C23.6724 9.1357 23.8648 8.86896 24.0649 8.64184C24.3724 8.29431 24.6997 8.19371 25.1589 8.30498C25.7498 8.44674 26.3074 8.71043 26.8984 8.98937C27.0378 9.05492 27.1787 9.12046 27.3181 9.186C27.709 9.36434 28.2272 9.59908 28.7667 9.81705C30.2152 10.4024 31.7017 10.4054 33.1821 9.82772C33.7109 9.62042 34.2231 9.38111 34.7186 9.14942C35.1049 8.96956 35.5035 8.78207 35.8974 8.61745C36.2671 8.4635 36.5687 8.36138 36.8475 8.29736C37.2717 8.19981 37.5763 8.29126 37.8642 8.60374C38.2112 8.9787 38.4824 9.42227 38.7218 9.84601L38.7855 9.95728C39.1082 10.5258 39.4431 11.1142 39.7598 11.6965C40.6629 13.3503 42.0963 14.3792 44.0191 14.7541C44.1934 14.7877 44.3676 14.8212 44.5434 14.8547C45.2465 14.9889 45.9738 15.1261 46.6648 15.3151C46.986 15.402 47.2572 15.5041 47.4936 15.6275C47.8057 15.7891 47.9588 16.0223 48.0073 16.4049C48.0891 17.0604 48.0042 17.728 47.9148 18.4352C47.8951 18.5953 47.8739 18.7538 47.8557 18.9139C47.7648 19.6989 47.6633 20.589 47.7285 21.4899C47.836 23.0019 48.6528 24.1207 49.3513 24.9271C49.6074 25.2228 49.8756 25.5078 50.1362 25.7837C50.5605 26.2349 50.962 26.6602 51.312 27.1281C51.4242 27.2775 51.5363 27.4513 51.6545 27.6601C51.8681 28.0366 51.8681 28.3795 51.6514 28.7728C51.3499 29.3246 50.912 29.7971 50.4498 30.2955L50.3589 30.3946C49.9331 30.8565 49.5165 31.3092 49.1089 31.7741C48.0027 33.0346 47.5421 34.6046 47.7421 36.4383ZM41.1523 48.7711C41.4902 48.2133 41.8069 47.6371 42.1145 47.0792L42.2175 46.8917C43.1145 45.2623 43.46 45.0169 45.2844 44.6937C45.7208 44.616 46.0784 44.5489 46.4041 44.4819C47.3648 46.1662 48.33 47.8474 49.2937 49.5302L49.4149 49.7421L47.4375 49.2025C46.6163 48.9784 45.7935 48.7544 44.9722 48.5333C43.9782 48.2651 43.163 48.7376 42.8963 49.7375C42.5615 50.992 42.2281 52.2465 41.8948 53.5009L41.7008 54.2295C41.5766 54.0131 41.4523 53.7982 41.3281 53.5817C40.7508 52.5787 40.175 51.5743 39.5946 50.5728C40.3295 50.0363 40.8083 49.3412 41.1523 48.7727V48.7711ZM12.8051 49.2467C13.7051 47.6782 14.6355 46.0579 15.5476 44.4559C15.8355 44.52 16.1234 44.5764 16.4038 44.6312C16.9023 44.7288 17.372 44.8202 17.8342 44.9529C18.419 45.122 18.8448 45.433 19.1767 45.933C19.4706 46.378 19.7237 46.8445 19.9904 47.3398C20.1525 47.6386 20.3192 47.948 20.4964 48.2514C20.9434 49.0181 21.492 49.8854 22.3587 50.5469L20.2646 54.2234L19.5691 51.6093C19.4024 50.9813 19.2358 50.3533 19.0661 49.7253C18.8509 48.9251 18.2554 48.4571 17.516 48.4571C17.3538 48.4571 17.1841 48.48 17.0114 48.5257C15.7386 48.8656 14.4658 49.2071 13.1945 49.5485L12.5308 49.7268L12.8066 49.2467H12.8051Z" fill="white"/>
<path d="M30.997 13.0986H30.9939C26.9861 13.0986 23.2162 14.6701 20.3781 17.5251C17.5401 20.38 15.9763 24.1724 15.9763 28.2056C15.9763 32.2266 17.5401 36.0144 20.3811 38.8724C23.2207 41.7289 26.9846 43.3019 30.9788 43.3019H30.9818C34.979 43.3019 38.7459 41.7274 41.5855 38.8694C44.4266 36.0114 45.9888 32.2251 45.9873 28.2056C45.9828 19.877 39.2581 13.1002 30.997 13.1002V13.0986ZM42.7841 28.2178C42.7507 34.7645 37.4837 40.0674 31.0303 40.0674C31.0106 40.0674 30.9909 40.0674 30.9712 40.0674C27.8089 40.0522 24.839 38.8023 22.6086 36.551C20.3796 34.2996 19.1614 31.3227 19.178 28.1645C19.2129 21.6193 24.4905 16.3194 30.9576 16.3194C30.9773 16.3194 30.9985 16.3194 31.0197 16.3194C34.1714 16.3362 37.1337 17.5845 39.3596 19.8359C41.584 22.0872 42.8007 25.0626 42.7841 28.2163V28.2178Z" fill="white"/>
<path d="M38.7355 21.5977C38.1991 21.6633 37.8627 22.0001 37.6824 22.1815L34.8943 24.9877C32.9275 26.9662 30.9607 28.9462 28.997 30.9277C28.4378 30.3577 27.8711 29.7891 27.3211 29.2373L26.7059 28.62C26.4741 28.3868 26.2422 28.1536 26.0119 27.9204C25.4073 27.3107 24.7831 26.6811 24.1588 26.0669C23.8436 25.7559 23.4405 25.5867 23.0193 25.5867C23.0117 25.5867 23.0042 25.5867 22.9981 25.5867C22.5769 25.5928 22.1799 25.7681 21.8798 26.0806C21.2692 26.7177 21.2798 27.71 21.9056 28.3426C23.4466 29.8989 24.9906 31.4521 26.5347 33.0038L27.8545 34.3299C28.1575 34.6348 28.5515 34.807 28.9636 34.8131H28.9697H28.9757C29.453 34.8131 29.8682 34.6271 30.2425 34.2491C32.1381 32.3346 34.0367 30.4217 35.9338 28.5087L38.7355 25.6843C39.1855 25.2331 39.6491 24.7651 40.1007 24.2957C40.581 23.7957 40.6856 23.0458 40.3598 22.4269C40.0522 21.8401 39.4143 21.5154 38.7339 21.5962L38.7355 21.5977Z" fill="white"/>
</g>
</g>
<defs>
<clipPath id="clip0_1023_3921">
<rect width="64" height="64" fill="white" transform="translate(0 0.5)"/>
</clipPath>
<clipPath id="clip1_1023_3921">
<rect width="48" height="55" fill="white" transform="translate(7 5)"/>
</clipPath>
</defs>
</svg>
