<svg width="230" height="24" viewBox="0 0 230 24" fill="none" xmlns="http://www.w3.org/2000/svg">
<g clip-path="url(#clip0_1023_2278)">
<path d="M0 3.52867V0.261719H10.9422V3.52494H7.24091V23.1155H3.70132V3.52867H0Z" fill="white"/>
<path d="M16.0254 3.52867V9.89476H20.8846V13.158H16.0254V19.8523H22.1416V23.1192H12.4858V0.261719H22.1416V3.52494H16.0254V3.52867Z" fill="white"/>
<path d="M27.8682 3.52867V23.1192H24.3286V0.261719H35.4951V23.1192H31.8893V3.52867H27.8682Z" fill="white"/>
<path d="M37.072 23.153V19.8897C37.9284 19.8897 38.5055 19.7555 38.7922 19.4832C39.0826 19.211 39.237 18.5658 39.259 17.5402L39.8398 0.265625H49.8484V23.1231H46.2426V3.52885H43.1515L42.7655 17.3425C42.703 19.431 42.273 20.9228 41.4791 21.8178C40.6851 22.7092 39.3987 23.1567 37.616 23.1567H37.0684L37.072 23.153Z" fill="white"/>
<path d="M52.2632 17.6326V5.74701C52.2632 3.9196 52.7226 2.50243 53.6489 1.50295C54.5715 0.503469 55.902 0 57.6406 0C59.3791 0 60.7097 0.49974 61.6323 1.50295C62.5548 2.50616 63.0143 3.9196 63.0143 5.74701V17.6326C63.0143 19.46 62.5512 20.8772 61.6323 21.8767C60.7097 22.8799 59.3791 23.3796 57.6406 23.3796C55.902 23.3796 54.5715 22.8799 53.6489 21.8767C52.7263 20.8772 52.2632 19.46 52.2632 17.6326ZM55.8028 5.51951V17.8638C55.8028 19.3668 56.4129 20.1164 57.6369 20.1164C58.8609 20.1164 59.471 19.3668 59.471 17.8638V5.51951C59.471 4.01656 58.8609 3.26695 57.6369 3.26695C56.4129 3.26695 55.8028 4.01656 55.8028 5.51951Z" fill="white"/>
<path d="M65.0063 17.6326V5.74701C65.0063 3.9196 65.4658 2.50243 66.392 1.50295C67.3146 0.503469 68.6452 0 70.3837 0C72.1223 0 73.4529 0.49974 74.3754 1.50295C75.298 2.50616 75.7574 3.9196 75.7574 5.74701V17.6326C75.7574 19.46 75.2943 20.8772 74.3754 21.8767C73.4529 22.8799 72.1223 23.3796 70.3837 23.3796C68.6452 23.3796 67.3146 22.8799 66.392 21.8767C65.4695 20.8772 65.0063 19.46 65.0063 17.6326ZM68.5459 5.51951V17.8638C68.5459 19.3668 69.1561 20.1164 70.3801 20.1164C71.604 20.1164 72.2142 19.3668 72.2142 17.8638V5.51951C72.2142 4.01656 71.604 3.26695 70.3801 3.26695C69.1561 3.26695 68.5459 4.01656 68.5459 5.51951Z" fill="white"/>
<path d="M83.6712 23.1192H78.0732V0.261719H87.9863V3.52494H81.6128V9.36891H83.6712C85.4318 9.36891 86.7623 9.85374 87.6629 10.8234C88.5634 11.793 89.0155 13.1915 89.0155 15.019V17.4692C89.0155 19.2966 88.5634 20.6951 87.6629 21.6647C86.7623 22.6344 85.4318 23.1192 83.6712 23.1192ZM81.6128 19.8523H83.6712C84.8731 19.8523 85.4722 19.1325 85.4722 17.6967V14.7915C85.4722 13.3556 84.8731 12.6359 83.6712 12.6359H81.6128V19.8523Z" fill="white"/>
<path d="M96.2856 0.261719L98.8916 16.4883L101.306 0.261719H106.232V23.1192H102.883V6.7285L100.439 23.1192H97.0906L94.4515 6.95599V23.1192H91.3604V0.261719H96.2856Z" fill="white"/>
<path d="M112.345 3.52867V9.89476H117.204V13.158H112.345V19.8523H118.457V23.1192H108.801V0.261719H118.457V3.52494H112.345V3.52867Z" fill="white"/>
<path d="M124.187 13.3221V23.1192H120.647V0.261719H124.187V10.0589H128.208V0.261719H131.814V23.1192H128.208V13.3221H124.187Z" fill="white"/>
<path d="M137.93 13.3221V23.1192H134.391V0.261719H137.93V10.0589H141.951V0.261719H145.557V23.1192H141.951V13.3221H137.93Z" fill="white"/>
<path d="M154.728 12.6359L151.769 23.1192H148.134V0.261719H151.287V14.7281L152.574 9.70083L155.47 0.265448H159.362V23.1229H156.176V7.02312L154.728 12.6396V12.6359Z" fill="white"/>
<path d="M169.948 23.1192L166.504 14.0083L165.409 16.0968V23.1192H161.869V0.261719H165.409V10.2192L170.044 0.261719H173.583L168.658 10.4504L173.583 23.1192H169.948Z" fill="white"/>
<path d="M182.21 5.87771C182.21 4.89688 182.056 4.21813 181.743 3.83773C181.431 3.45733 180.975 3.26713 180.376 3.26713C179.152 3.26713 178.542 4.01674 178.542 5.51969V7.96991H175.193V5.75091C175.193 3.90113 175.645 2.48023 176.546 1.48821C177.446 0.496187 178.755 0.00390625 180.472 0.00390625C182.188 0.00390625 183.497 0.499916 184.397 1.48821C185.298 2.48023 185.75 3.8974 185.75 5.75091C185.75 7.07858 185.507 8.34284 185.026 9.53998C184.544 10.7371 183.952 11.759 183.254 12.6093C182.556 13.4596 181.865 14.2539 181.177 14.9924C180.49 15.7345 179.905 16.4767 179.424 17.23C178.942 17.9796 178.7 18.6957 178.7 19.367C178.7 19.5833 178.711 19.7474 178.733 19.8555H185.426V23.1225H175.193V20.3142C175.193 19.0723 175.436 17.9349 175.917 16.9018C176.399 15.8688 176.983 14.9663 177.671 14.1905C178.358 13.4186 179.042 12.6578 179.729 11.9044C180.416 11.1548 181.001 10.2672 181.482 9.24163C181.964 8.21978 182.206 7.09723 182.206 5.87771H182.21Z" fill="white"/>
<path d="M187.102 18.9721V15.7089L193.538 0.261719H197.401V15.7052H199.074V18.9684H197.401V23.1155H193.924V18.9684H187.102V18.9721ZM190.352 15.7089H193.924V7.12008L190.352 15.7089Z" fill="white"/>
<path d="M200.684 19.6582H204.095V23.1191H200.684V19.6582Z" fill="white"/>
<path d="M217.676 23.1192H214.07C213.857 22.4666 213.746 21.5305 213.746 20.311V16.7196C213.746 15.6753 213.563 14.9295 213.199 14.4819C212.835 14.0344 212.243 13.8144 211.427 13.8144H210.203V23.1192H206.664V0.261719H212.004C213.827 0.261719 215.158 0.6906 215.996 1.55209C216.834 2.41358 217.253 3.73379 217.253 5.52017V7.31774C217.253 9.66727 216.481 11.215 214.937 11.9534C216.503 12.6284 217.286 14.2507 217.286 16.8203V20.3483C217.286 21.5902 217.415 22.5151 217.672 23.1229L217.676 23.1192ZM211.916 3.52867H210.211V10.5511H211.593C212.302 10.5511 212.831 10.3647 213.184 9.99545C213.537 9.62624 213.713 9.00343 213.713 8.13448V5.88193C213.713 4.31558 213.114 3.5324 211.912 3.5324L211.916 3.52867Z" fill="white"/>
<path d="M219.444 0.261719H222.983V17.8943C222.983 19.3749 223.593 20.1133 224.817 20.1133C226.041 20.1133 226.651 19.3749 226.651 17.8943V0.261719H230V17.6668C230 19.5166 229.548 20.9375 228.647 21.9295C227.747 22.9216 226.438 23.4138 224.722 23.4138C223.005 23.4138 221.697 22.9178 220.796 21.9295C219.896 20.9375 219.444 19.5203 219.444 17.6668V0.261719Z" fill="white"/>
</g>
<defs>
<clipPath id="clip0_1023_2278">
<rect width="230" height="23.4132" fill="white"/>
</clipPath>
</defs>
</svg>
