<svg width="334" height="34" viewBox="0 0 334 34" fill="none" xmlns="http://www.w3.org/2000/svg">
<g clip-path="url(#clip0_1546_2379)">
<path d="M0 5.12309V0.378906H15.89V5.11768H10.5151V33.5665H5.37496V5.12309H0Z" fill="#1A9FFF"/>
<path d="M23.2719 5.12309V14.3678H30.3282V19.1065H23.2719V28.8278H32.1537V33.572H18.1318V0.378906H32.1537V5.11768H23.2719V5.12309Z" fill="#1A9FFF"/>
<path d="M40.4697 5.12309V33.572H35.3296V0.378906H51.5452V33.572H46.309V5.12309H40.4697Z" fill="#1A9FFF"/>
<path d="M53.8349 33.6211V28.8824C55.0786 28.8824 55.9166 28.6874 56.3329 28.2921C56.7546 27.8967 56.9788 26.9598 57.0108 25.4705L57.8541 0.384766H72.3884V33.5778H67.1522V5.12354H62.6633L62.1029 25.1834C62.0121 28.2162 61.3876 30.3825 60.2347 31.6823C59.0818 32.9767 57.2136 33.6266 54.6249 33.6266H53.8296L53.8349 33.6211Z" fill="#1A9FFF"/>
<path d="M75.8955 25.6056V8.34565C75.8955 5.69194 76.5627 3.63396 77.9078 2.18254C79.2475 0.731125 81.1797 0 83.7044 0C86.2291 0 88.1613 0.725709 89.501 2.18254C90.8408 3.63938 91.508 5.69194 91.508 8.34565V25.6056C91.508 28.2593 90.8354 30.3173 89.501 31.7687C88.1613 33.2256 86.2291 33.9513 83.7044 33.9513C81.1797 33.9513 79.2475 33.2256 77.9078 31.7687C76.568 30.3173 75.8955 28.2593 75.8955 25.6056ZM81.0356 8.01529V25.9414C81.0356 28.1239 81.9216 29.2125 83.6991 29.2125C85.4765 29.2125 86.3625 28.1239 86.3625 25.9414V8.01529C86.3625 5.83275 85.4765 4.74419 83.6991 4.74419C81.9216 4.74419 81.0356 5.83275 81.0356 8.01529Z" fill="#1A9FFF"/>
<path d="M94.4009 25.6056V8.34565C94.4009 5.69194 95.0681 3.63396 96.4132 2.18254C97.7529 0.731125 99.6851 0 102.21 0C104.734 0 106.667 0.725709 108.006 2.18254C109.346 3.63938 110.013 5.69194 110.013 8.34565V25.6056C110.013 28.2593 109.341 30.3173 108.006 31.7687C106.667 33.2256 104.734 33.9513 102.21 33.9513C99.6851 33.9513 97.7529 33.2256 96.4132 31.7687C95.0734 30.3173 94.4009 28.2593 94.4009 25.6056ZM99.541 8.01529V25.9414C99.541 28.1239 100.427 29.2125 102.204 29.2125C103.982 29.2125 104.868 28.1239 104.868 25.9414V8.01529C104.868 5.83275 103.982 4.74419 102.204 4.74419C100.427 4.74419 99.541 5.83275 99.541 8.01529Z" fill="#1A9FFF"/>
<path d="M121.505 33.572H113.376V0.378906H127.771V5.11768H118.516V13.6041H121.505C124.062 13.6041 125.994 14.3082 127.302 15.7163C128.609 17.1244 129.266 19.1553 129.266 21.809V25.3671C129.266 28.0208 128.609 30.0517 127.302 31.4598C125.994 32.8679 124.062 33.572 121.505 33.572ZM118.516 28.8278H121.505C123.251 28.8278 124.121 27.7825 124.121 25.6975V21.4786C124.121 19.3936 123.251 18.3483 121.505 18.3483H118.516V28.8278Z" fill="#1A9FFF"/>
<path d="M139.824 0.378906L143.608 23.9428L147.115 0.378906H154.267V33.572H149.405V9.76979L145.855 33.572H140.993L137.16 10.1002V33.572H132.671V0.378906H139.824Z" fill="#1A9FFF"/>
<path d="M163.143 5.12309V14.3678H170.2V19.1065H163.143V28.8278H172.02V33.572H157.998V0.378906H172.02V5.11768H163.143V5.12309Z" fill="#1A9FFF"/>
<path d="M180.341 19.3448V33.572H175.201V0.378906H180.341V14.606H186.181V0.378906H191.417V33.572H186.181V19.3448H180.341Z" fill="#1A9FFF"/>
<path d="M200.299 19.3448V33.572H195.158V0.378906H200.299V14.606H206.138V0.378906H211.374V33.572H206.138V19.3448H200.299Z" fill="#1A9FFF"/>
<path d="M224.691 18.3483L220.395 33.572H215.116V0.378906H219.695V21.3866L221.564 14.0861L225.77 0.384322H231.422V33.5774H226.794V10.1976L224.691 18.3537V18.3483Z" fill="#1A9FFF"/>
<path d="M246.794 33.572L241.793 20.3413L240.202 23.3741V33.572H235.062V0.378906H240.202V14.8389L246.933 0.378906H252.073L244.921 15.1747L252.073 33.572H246.794Z" fill="#1A9FFF"/>
<path d="M264.601 8.53565C264.601 7.11131 264.376 6.12564 263.923 5.57324C263.469 5.02083 262.807 4.74463 261.937 4.74463C260.16 4.74463 259.274 5.83319 259.274 8.01574V11.5739H254.411V8.35151C254.411 5.66531 255.068 3.60191 256.375 2.16132C257.683 0.720737 259.583 0.00585938 262.076 0.00585938C264.569 0.00585938 266.469 0.726152 267.776 2.16132C269.084 3.60191 269.741 5.65989 269.741 8.35151C269.741 10.2795 269.388 12.1154 268.689 13.8539C267.99 15.5924 267.131 17.0763 266.116 18.3111C265.102 19.5458 264.099 20.6994 263.101 21.7717C262.103 22.8494 261.254 23.9272 260.555 25.0212C259.855 26.1097 259.503 27.1495 259.503 28.1244C259.503 28.4385 259.519 28.6768 259.551 28.8338H269.271V33.578H254.411V29.5C254.411 27.6965 254.763 26.0447 255.463 24.5446C256.162 23.0444 257.011 21.7338 258.009 20.6073C259.007 19.4863 260 18.3815 260.998 17.2875C261.996 16.1989 262.845 14.91 263.544 13.4206C264.243 11.9367 264.595 10.3066 264.595 8.53565H264.601Z" fill="#EB1C24"/>
<path d="M271.705 27.5497V22.8109L281.051 0.378906H286.661V22.8055H289.089V27.5442H286.661V33.5665H281.611V27.5442H271.705V27.5497ZM276.423 22.8109H281.611V10.3384L276.423 22.8109Z" fill="#EB1C24"/>
<path d="M291.427 28.5459H296.381V33.5717H291.427V28.5459Z" fill="#EB1C24"/>
<path d="M316.103 33.572H310.867C310.557 32.6242 310.397 31.2649 310.397 29.4939V24.2786C310.397 22.7621 310.13 21.679 309.602 21.0291C309.073 20.3792 308.214 20.0597 307.029 20.0597H305.252V33.572H300.112V0.378906H307.867C310.515 0.378906 312.447 1.00172 313.664 2.25275C314.881 3.50379 315.489 5.42096 315.489 8.0151V10.6255C315.489 14.0374 314.368 16.2849 312.127 17.3572C314.4 18.3375 315.537 20.6933 315.537 24.4248V29.5481C315.537 31.3515 315.724 32.6946 316.098 33.5774L316.103 33.572ZM307.739 5.12309H305.262V15.3209H307.269C308.299 15.3209 309.068 15.0501 309.58 14.514C310.093 13.9778 310.349 13.0734 310.349 11.8115V8.54042C310.349 6.26581 309.479 5.12851 307.734 5.12851L307.739 5.12309Z" fill="#EB1C24"/>
<path d="M318.67 0.378906H323.81V25.9845C323.81 28.1346 324.697 29.2069 326.474 29.2069C328.251 29.2069 329.137 28.1346 329.137 25.9845V0.378906H334V25.6542C334 28.3404 333.343 30.4038 332.036 31.8443C330.728 33.2849 328.828 33.9998 326.335 33.9998C323.843 33.9998 321.942 33.2795 320.635 31.8443C319.327 30.4038 318.67 28.3458 318.67 25.6542V0.378906Z" fill="#EB1C24"/>
</g>
<defs>
<clipPath id="clip0_1546_2379">
<rect width="334" height="34" fill="white"/>
</clipPath>
</defs>
</svg>
