<svg width="29" height="29" viewBox="0 0 29 29" fill="none" xmlns="http://www.w3.org/2000/svg">
<path d="M15.7279 0.423828V2.35227C17.6353 2.35227 19.4222 2.83437 21.0886 3.79859C22.6748 4.74272 23.9396 6.00826 24.8833 7.5952C25.847 9.2625 26.3289 11.0503 26.3289 12.9587H28.2563C28.2563 10.6887 27.6841 8.57951 26.5397 6.63098C25.4354 4.74272 23.9396 3.24618 22.0523 2.14134C20.1048 0.996333 17.9967 0.423828 15.7279 0.423828ZM5.75931 3.31648C5.21721 3.31648 4.74538 3.48723 4.34383 3.82872L1.24183 6.99257L1.33218 6.9323C0.830235 7.35415 0.498953 7.87643 0.338332 8.49916C0.197788 9.12188 0.237943 9.72452 0.458798 10.3071C1.02097 11.8739 1.77389 13.481 2.71754 15.1282C4.04266 17.3981 5.61876 19.437 7.44583 21.2449C10.3772 24.1978 14.0213 26.528 18.3781 28.2355H18.4082C18.9905 28.4364 19.5728 28.4766 20.155 28.356C20.7573 28.2355 21.2894 27.9744 21.7512 27.5726L24.7929 24.5293C25.1945 24.1275 25.3953 23.6354 25.3953 23.0528C25.3953 22.4502 25.1945 21.948 24.7929 21.5462L20.8477 17.5688C20.4461 17.1671 19.9442 16.9662 19.3419 16.9662C18.7395 16.9662 18.2376 17.1671 17.836 17.5688L15.9387 19.4973C14.4128 18.7741 13.0877 17.8802 11.9633 16.8155C10.839 15.7308 9.9455 14.415 9.28294 12.8683L11.2104 10.9398C11.632 10.4979 11.8428 9.97562 11.8428 9.37298C11.8428 8.75026 11.6019 8.24806 11.12 7.86639L11.2104 7.95678L7.17478 3.82872C6.77323 3.48723 6.3014 3.31648 5.75931 3.31648ZM15.7279 4.2807V6.20914C16.9526 6.20914 18.077 6.51046 19.1009 7.11309C20.145 7.71573 20.9681 8.53933 21.5705 9.5839C22.1728 10.6084 22.474 11.7333 22.474 12.9587H24.4014C24.4014 11.3918 24.0099 9.93544 23.2269 8.58955C22.4439 7.28384 21.3998 6.23927 20.0948 5.45584C18.7496 4.67242 17.2939 4.2807 15.7279 4.2807ZM5.75931 5.24492C5.81954 5.24492 5.88981 5.27505 5.97012 5.33532L9.91539 9.37298C9.93546 9.45333 9.91539 9.52364 9.85515 9.5839L6.99408 12.4163L7.2049 13.0189L7.59641 13.8626C7.91766 14.5456 8.28909 15.2085 8.71072 15.8513C9.29298 16.7553 9.93546 17.5287 10.6382 18.1715C11.5818 19.0955 12.7162 19.9392 14.0413 20.7025C14.7039 21.0842 15.2661 21.3654 15.7279 21.5462L16.3302 21.8174L19.2515 18.8946C19.2917 18.8545 19.3218 18.8344 19.3419 18.8344C19.3619 18.8344 19.3921 18.8545 19.4322 18.8946L23.4979 22.9624C23.5381 23.0026 23.5582 23.0327 23.5582 23.0528C23.5582 23.0528 23.5381 23.0729 23.4979 23.1131L20.4863 26.0961C20.0446 26.4778 19.5627 26.5783 19.0407 26.3975C14.9448 24.8105 11.5316 22.641 8.80107 19.889C7.11455 18.2016 5.63884 16.2832 4.37395 14.1338C3.47045 12.587 2.76773 11.0905 2.26579 9.64417V9.61404C2.18548 9.43324 2.17544 9.22232 2.23567 8.98127C2.29591 8.72012 2.40633 8.51925 2.56695 8.37863L5.54849 5.33532C5.60872 5.27505 5.67899 5.24492 5.75931 5.24492ZM15.7279 8.13758V10.066C16.531 10.066 17.2136 10.3472 17.7758 10.9097C18.338 11.4722 18.6191 12.1552 18.6191 12.9587H20.5465C20.5465 12.0949 20.3257 11.2914 19.884 10.5481C19.4623 9.80487 18.8801 9.22232 18.1372 8.80048C17.3943 8.35854 16.5912 8.13758 15.7279 8.13758Z" fill="white"/>
</svg>
