<svg width="64" height="50" viewBox="0 0 64 50" fill="none" xmlns="http://www.w3.org/2000/svg">
<path d="M63.9498 36.9687C63.9498 38.3962 63.9527 39.8251 63.9498 41.2526C63.9455 42.7283 63.4463 43.9797 62.1991 44.8717C61.4539 45.4043 60.5829 45.5705 59.6858 45.606C59.4023 45.6174 59.2909 45.7083 59.2055 45.9668C57.8454 50.083 53.075 50.8799 50.42 49.1229C49.2162 48.326 48.3495 47.2707 47.8909 45.9142C47.8156 45.6912 47.7259 45.616 47.4857 45.616C39.6089 45.6216 34.9152 45.6216 27.0369 45.616C26.7996 45.616 26.7027 45.6813 26.6289 45.9057C25.81 48.4169 23.6498 49.9708 20.9672 49.9907C18.4193 50.0106 16.1535 48.4098 15.3201 45.9725C15.2231 45.6884 15.1001 45.6145 14.8093 45.6131C13.8008 45.6032 12.7866 45.704 11.7824 45.5549C9.96949 45.285 8.56745 43.8362 8.36489 42.0395C8.32148 41.656 8.29978 41.2668 8.29978 40.8804C8.29544 37.1164 8.29399 33.3539 8.30412 29.5899C8.30412 29.303 8.21731 29.1482 7.95832 28.9976C3.39195 26.3585 0.700749 22.4568 0.0901639 17.2894C-0.479908 12.4744 0.966975 8.23599 4.40188 4.7305C7.03955 2.03747 10.2994 0.470802 14.0917 0.0858809C21.7789 -0.692484 28.7471 3.8868 30.9233 11.1108C31.0057 11.3835 31.1417 11.4233 31.3892 11.4219C35.9497 11.4162 37.3286 11.4546 41.8892 11.4034C44.3445 11.3764 46.3253 13.2485 46.2964 15.7313C46.2834 16.8321 46.3051 17.9343 46.2877 19.0351C46.2834 19.3305 46.3543 19.4214 46.6697 19.42C49.4188 19.4072 52.1678 19.4129 54.9169 19.4115C57.7427 19.4101 59.8161 20.775 60.8043 23.3687C61.8518 26.1171 62.8487 28.8854 63.8673 31.6452C63.931 31.817 63.9686 31.9932 63.9686 32.1764C63.9686 33.7729 63.9686 35.3708 63.9686 36.9673C63.9628 36.9673 63.9556 36.9673 63.9498 36.9673V36.9687ZM11.4236 30.4535C11.4164 30.5344 11.4062 30.5941 11.4062 30.6523C11.4062 34.2587 11.4033 37.865 11.4062 41.4713C11.4062 42.1361 11.8418 42.5593 12.5189 42.5693C13.2713 42.5806 14.0237 42.5551 14.7746 42.5806C15.1189 42.592 15.2767 42.5025 15.3982 42.1602C16.3256 39.5567 19.1037 37.9204 21.8585 38.382C24.1764 38.7698 25.7391 40.0992 26.5768 42.2468C26.6694 42.484 26.7649 42.5792 27.0384 42.5792C33.3497 42.5707 36.4778 42.5707 42.7891 42.5792C43.0988 42.5792 43.1769 42.4997 43.1769 42.1985C43.174 33.3652 43.1812 24.5305 43.1856 15.6972C43.1856 14.8649 42.7862 14.4714 41.9398 14.47C37.5384 14.4686 36.3216 14.4714 31.9202 14.4629C31.6438 14.4629 31.5657 14.5268 31.5787 14.8024C31.6409 16.1475 31.57 17.4897 31.2474 18.8007C29.854 24.4524 26.3482 28.2704 20.7965 30.2504C18.4801 31.077 16.0724 31.2361 13.6301 30.8938C12.8893 30.7901 12.1644 30.6168 11.4236 30.4521V30.4535ZM3.05483 15.5353C3.06062 22.1301 8.29978 27.6312 15.0842 27.9707C22.5632 28.3456 28.2407 22.5974 28.4824 15.9926C28.75 8.66636 22.7411 3.00333 15.7527 3.02179C8.82789 3.04026 3.0447 8.55841 3.05628 15.5353H3.05483ZM46.3051 32.513C46.3051 35.4773 46.3051 38.4417 46.3051 41.406C46.3051 41.7795 46.1763 42.2781 46.3687 42.4926C46.5901 42.7383 47.111 42.5338 47.4987 42.5764C47.7693 42.6062 47.8677 42.4954 47.9516 42.2511C48.9861 39.2797 52.2301 37.6463 55.2859 38.5738C57.2015 39.1547 58.4719 40.4217 59.1867 42.2483C59.2359 42.3733 59.2055 42.5551 59.45 42.5792C60.3066 42.663 60.8405 42.2241 60.8419 41.3904C60.8448 38.4743 60.8434 35.5583 60.8419 32.6423C60.8419 32.4988 60.8332 32.3468 60.7855 32.2147C59.8132 29.5672 58.8452 26.9182 57.8498 24.2791C57.4142 23.1258 56.3826 22.4653 55.1296 22.4639C52.3198 22.4625 49.5085 22.4696 46.6986 22.4539C46.3601 22.4525 46.2978 22.5491 46.2993 22.8573C46.3109 26.0759 46.3065 29.2944 46.3065 32.513H46.3051ZM21.0005 41.4003C19.4046 41.3918 18.1444 42.6147 18.1299 44.1842C18.1154 45.6898 19.3901 46.9412 20.947 46.9525C22.527 46.9639 23.8002 45.7438 23.8191 44.1984C23.8379 42.6687 22.5675 41.4074 21.0005 41.3989V41.4003ZM56.3942 44.1587C56.4202 42.6105 55.0486 41.308 53.4064 41.3932C52.1056 41.4614 50.6197 42.5707 50.7441 44.4072C50.8396 45.8347 52.1186 47.0207 53.6972 46.9568C55.2121 46.8957 56.4361 45.6444 56.3942 44.1587Z" fill="#1A9FFF"/>
<path d="M31.1389 33.6415C27.8602 33.6415 24.5816 33.6415 21.303 33.6415C20.4826 33.6415 19.8749 33.2182 19.6781 32.5265C19.396 31.535 20.1426 30.5976 21.2321 30.5948C23.3763 30.5891 25.5221 30.5933 27.6663 30.5933C32.1039 30.5933 33.3584 30.5933 37.796 30.5933C38.625 30.5933 39.2458 31.0336 39.4295 31.7438C39.6813 32.7125 38.952 33.6329 37.903 33.6386C35.7703 33.65 36.8208 33.6429 34.6895 33.6429C33.506 33.6429 32.3224 33.6429 31.1403 33.6429L31.1389 33.6415Z" fill="#1A9FFF"/>
<path d="M37.8264 23.9006C38.7683 23.9034 39.4686 24.5355 39.4859 25.3934C39.5048 26.2513 38.7857 26.943 37.8365 26.9458C35.5938 26.9544 36.5329 26.9544 34.2902 26.9458C33.3569 26.9416 32.6523 26.2712 32.6494 25.4218C32.648 24.5497 33.354 23.9034 34.3162 23.9006C35.4376 23.8977 36.7166 23.8977 37.8264 23.9006Z" fill="#1A9FFF"/>
<path d="M24.0492 10.9892C24.0593 11.4991 23.8046 11.8798 23.4501 12.2264C21.1973 14.4308 18.9518 16.6395 16.7033 18.8467C15.9712 19.5654 15.242 20.287 14.507 21.0014C13.73 21.7557 12.8387 21.7528 12.0719 21.0014C10.7205 19.6762 9.37197 18.3482 8.01768 17.0244C7.53587 16.5528 7.37237 16.0017 7.5923 15.3668C7.95836 14.3115 9.32422 14.0189 10.1605 14.8214C11.1285 15.7532 12.0878 16.6949 13.034 17.6479C13.2366 17.8511 13.3393 17.8468 13.5404 17.6479C16.1217 15.0998 18.713 12.563 21.2986 10.0191C21.7385 9.58589 22.242 9.37142 22.8685 9.51914C23.5833 9.68674 24.052 10.2719 24.0506 10.9921L24.0492 10.9892Z" fill="#1A9FFF"/>
<path d="M53.2687 33.6426C52.049 33.6426 50.8292 33.6454 49.6081 33.6426C48.5432 33.6397 47.9138 33.0205 47.9123 31.968C47.9094 29.8388 47.9094 27.7097 47.9123 25.5805C47.9138 24.4996 48.5301 23.9017 49.6327 23.9017C50.9508 23.9017 52.2703 23.8988 53.5885 23.9017C54.9644 23.9059 56.0395 24.6218 56.5083 25.8902C57.2172 27.8091 57.906 29.7337 58.5903 31.6612C58.9275 32.61 58.1939 33.6213 57.1507 33.6369C55.8572 33.6568 54.5622 33.6412 53.2687 33.6412V33.644V33.6426ZM52.9431 30.593C53.5089 30.593 54.0746 30.5845 54.6403 30.5973C54.8733 30.6016 54.9051 30.5419 54.827 30.3317C54.4363 29.2792 54.0558 28.221 53.6811 27.1628C53.6232 26.9981 53.532 26.9455 53.3584 26.9484C52.6697 26.9569 51.981 26.9583 51.2922 26.9484C51.0897 26.9455 51.013 27.0009 51.0144 27.2111C51.0231 28.2494 51.026 29.2877 51.0144 30.326C51.0116 30.5675 51.1128 30.6016 51.3212 30.5973C51.8623 30.5859 52.4035 30.593 52.9446 30.5945L52.9431 30.593Z" fill="#1A9FFF"/>
</svg>
