<svg width="50" height="58" viewBox="0 0 50 58" fill="none" xmlns="http://www.w3.org/2000/svg">
<g clip-path="url(#clip0_1123_1701)">
<path d="M42.0877 0C42.693 0.200086 43.3332 0.236465 43.9435 0.433243C47.4058 1.55108 50.0067 4.87481 50 8.8914C49.9767 22.2955 49.9784 35.7012 49.9983 49.1053C50.0033 53.1483 47.4091 56.4588 43.8903 57.5849C43.2983 57.7751 42.6747 57.8049 42.0877 58H7.91068C7.30204 57.8098 6.66513 57.7619 6.05316 57.5651C2.59921 56.4522 -0.0066391 53.1268 1.2706e-05 49.1053C0.023294 35.7029 0.023294 22.3004 1.2706e-05 8.89802C-0.0066391 4.47299 3.09643 0.954127 7.08918 0.158746C7.3619 0.104177 7.66622 0.198432 7.91068 0H42.0877ZM47.2146 29.0604C47.2146 22.2459 47.2146 15.4314 47.2146 8.61856C47.2146 7.91578 47.0749 7.23615 46.7988 6.59125C45.6946 4.00667 43.4879 2.68545 40.5262 2.7334C37.6809 2.7797 34.8339 2.7582 31.9886 2.7582C29.1433 2.7582 26.2963 2.74498 23.451 2.74332C19.3535 2.74001 15.2543 2.74001 11.1568 2.74332C9.98272 2.74332 8.79204 2.64907 7.63795 2.88553C4.74774 3.47917 2.78712 5.92815 2.78712 8.86495C2.78712 22.2095 2.78712 35.5557 2.78712 48.9002C2.78712 49.3897 2.81207 49.8726 2.89189 50.3604C3.29266 52.8027 5.59086 54.9425 8.08695 55.174C9.71498 55.3245 11.348 55.2368 12.9777 55.2501C15.8613 55.2716 18.7448 55.2567 21.63 55.255C24.477 55.2534 27.3223 55.2468 30.1693 55.2468C33.0146 55.2468 35.8616 55.2583 38.7069 55.2517C40.1071 55.2484 41.5223 55.384 42.8909 54.9954C45.4369 54.2711 47.2162 51.8734 47.2179 49.221C47.2196 42.5008 47.2179 35.7822 47.2179 29.062L47.2146 29.0604Z" fill="#1A9FFF"/>
<path d="M19.8687 24.2421C20.9563 24.4521 22.2883 24.7101 23.6187 24.9664C26.2861 25.4806 28.9551 25.9817 31.6175 26.5174C32.7616 26.7489 33.603 27.4071 34.0155 28.5199C34.4295 29.6394 34.2034 30.6647 33.4367 31.5609C33.031 32.0338 32.5886 32.4787 32.1313 32.902C31.8686 33.1467 31.8569 33.2807 32.1263 33.5452C34.205 35.5891 36.2688 37.6478 38.3292 39.7099C39.6346 41.0162 39.7876 42.8682 38.7266 44.3284C37.5459 45.9555 35.0282 46.2217 33.5665 44.8129C31.4279 42.7508 29.3309 40.6491 27.2373 38.5424C26.918 38.2216 26.7484 38.2266 26.4523 38.5474C25.8238 39.227 25.1769 39.9066 24.2057 40.1001C22.408 40.4573 20.795 39.3428 20.4424 37.5337C19.7008 33.7222 18.9508 29.9123 18.1941 26.104C17.9746 25.0011 18.5583 24.2156 19.8654 24.2388L19.8687 24.2421ZM21.5899 27.3938C21.1775 27.2897 21.3487 27.6386 21.387 27.837C21.979 30.8747 22.5793 33.9123 23.178 36.9483C23.2096 37.1121 23.2212 37.3022 23.4108 37.3667C23.6187 37.4378 23.7634 37.3138 23.903 37.1716C24.4618 36.6077 25.0289 36.0488 25.5943 35.4899C26.4723 34.6234 27.2123 34.625 28.0837 35.4948C30.2788 37.6842 32.4706 39.8752 34.6723 42.058C34.9384 42.3225 35.1662 42.6318 35.5088 42.817C35.8397 42.9972 36.1607 43.0171 36.4384 42.7359C36.741 42.43 36.6895 42.0861 36.46 41.7669C36.3403 41.5999 36.1839 41.4561 36.0376 41.3105C33.7178 39.0054 31.3946 36.702 29.0748 34.3952C28.2716 33.5965 28.2666 32.8524 29.0599 32.0471C29.7516 31.346 30.4534 30.6564 31.1519 29.9635C31.2849 29.8313 31.4512 29.7122 31.393 29.489C31.3348 29.2608 31.1385 29.2492 30.9473 29.2128C29.7067 28.973 28.4662 28.725 27.2256 28.4836C25.3748 28.1231 23.5222 27.7659 21.5899 27.3922V27.3938Z" fill="#1A9FFF"/>
<path d="M25.4446 12.9149C20.0566 12.9149 14.667 12.9149 9.27905 12.9149C8.2131 12.9149 7.68428 12.5494 7.51632 11.7144C7.38828 11.0761 7.84226 10.3435 8.47751 10.2046C8.77019 10.1402 9.07784 10.117 9.37883 10.117C20.1365 10.112 30.8958 10.112 41.6534 10.117C42.3236 10.117 42.9888 10.1418 43.3746 10.8429C43.8335 11.678 43.4361 12.5941 42.5115 12.8256C42.2122 12.9 41.9162 12.9182 41.6118 12.9182C36.2239 12.9165 30.8342 12.9182 25.4463 12.9182L25.4446 12.9149Z" fill="#1A9FFF"/>
<path d="M25.4782 20.2755C20.0703 20.2755 14.664 20.2755 9.25611 20.2755C8.19681 20.2755 7.65469 19.8273 7.52664 19.1064C7.40691 18.4317 7.82764 17.714 8.50778 17.5619C8.78217 17.5007 9.06986 17.4743 9.3509 17.4743C20.1268 17.4693 30.9044 17.471 41.6804 17.471C42.3805 17.471 43.054 17.5454 43.4215 18.263C43.8206 19.0419 43.3932 19.9563 42.5418 20.1746C42.2458 20.2507 41.9481 20.2771 41.6421 20.2771C36.2541 20.2738 30.8662 20.2755 25.4766 20.2755H25.4782Z" fill="#1A9FFF"/>
</g>
<defs>
<clipPath id="clip0_1123_1701">
<rect width="50" height="58" fill="white"/>
</clipPath>
</defs>
</svg>
