<svg width="55" height="58" viewBox="0 0 55 58" fill="none" xmlns="http://www.w3.org/2000/svg">
<g clip-path="url(#clip0_1123_1722)">
<path d="M19.348 19.8298C20.2034 19.8298 21.0684 19.8298 21.9335 19.8298C22.006 19.8298 22.0736 19.8266 22.0946 19.7336C22.2572 18.9924 22.6197 18.3251 22.908 17.6321C25.0118 12.5804 27.1269 7.53198 29.2404 2.48515C30.1376 0.341938 32.2914 -0.546792 34.4483 0.34675C39.9478 2.62312 45.4458 4.90269 50.9437 7.18387C53.0426 8.05495 53.9399 10.2174 53.07 12.3093C52.0487 14.7669 51.021 17.2214 49.9884 19.6742C49.895 19.8956 49.895 19.9854 50.1624 20.0576C53.0652 20.8437 54.9918 23.3478 54.9934 26.3445C54.9982 34.7184 54.9982 43.0924 54.9934 51.4663C54.9918 54.7549 52.7124 57.4051 49.4439 57.9264C49.0863 57.9842 48.7207 57.9986 48.3582 57.9986C34.4483 58.0018 20.5368 58.0034 6.62696 58.0002C3.43904 58.0002 0.853591 55.9661 0.152862 52.9229C0.0465442 52.4609 -0.000171127 51.9925 -0.000171127 51.5177C-0.000171127 39.8054 -0.00339287 28.0947 0.00305062 16.3824C0.00466149 13.0617 2.6481 10.357 5.97939 10.2928C8.1895 10.2495 10.4012 10.2768 12.6113 10.2864C12.8868 10.2864 12.9867 10.2158 13.035 9.93668C13.238 8.76882 13.4635 7.60577 13.6955 6.44433C14.1046 4.39897 16.1794 3.03219 18.193 3.47174C18.9566 3.63858 19.4269 4.30272 19.3335 5.07755C19.2449 5.80425 18.6199 6.33524 17.866 6.32401C17.7758 6.32401 17.684 6.31279 17.5938 6.30637C17.0203 6.26306 16.6385 6.54219 16.5322 7.10205C16.0667 9.53724 15.6027 11.974 15.1388 14.4108C14.8102 16.1369 14.4832 17.8631 14.1481 19.5876C14.1143 19.764 14.1127 19.8378 14.3285 19.833C14.9246 19.8202 15.519 19.8234 16.115 19.833C16.2809 19.8346 16.3421 19.7881 16.355 19.6181C16.3679 19.4512 16.4243 19.286 16.4774 19.124C18.1544 13.9167 19.8297 8.70786 21.5114 3.50222C22.1751 1.44723 24.2628 0.333917 26.2828 0.94191C27.0931 1.18575 27.5264 1.93331 27.317 2.72258C27.1108 3.4942 26.3376 3.92733 25.516 3.73002C24.9039 3.58243 24.469 3.80702 24.2837 4.38293C22.6471 9.45542 21.012 14.5295 19.377 19.602C19.3561 19.6678 19.3126 19.7304 19.3496 19.8314L19.348 19.8298ZM2.90745 21.7292V22.0067C2.90745 31.818 2.90745 41.6277 2.90745 51.439C2.90745 53.5438 4.46356 55.1063 6.57219 55.1063C20.5223 55.1079 34.4709 55.1079 48.421 55.1063C50.5313 55.1063 52.0858 53.5454 52.089 51.4407C52.0922 49.7322 52.0825 48.0237 52.097 46.3136C52.0987 46.0441 52.0246 45.9831 51.762 45.9848C49.2394 45.9944 46.7151 45.996 44.1925 45.988C42.5816 45.9832 41.4202 44.8265 41.417 43.2303C41.4105 40.7583 41.417 38.2846 41.4153 35.8125C41.4153 35.5302 41.4411 35.2526 41.5249 34.9799C41.8825 33.8137 42.9086 33.0677 44.1989 33.0645C46.7216 33.0581 49.2458 33.0597 51.7684 33.0677C52.0068 33.0677 52.097 33.026 52.0954 32.7613C52.0842 30.6101 52.089 28.4588 52.089 26.3076C52.089 25.7766 51.9907 25.2649 51.7523 24.7916C51.0612 23.4216 49.9352 22.7286 48.4001 22.727C34.4805 22.7238 20.5626 22.7222 6.64307 22.727C5.37048 22.727 4.1881 22.435 3.09915 21.7757C3.05082 21.7468 3.00894 21.6891 2.90745 21.726V21.7292ZM25.1407 19.8298C25.6836 19.8298 26.1846 19.8186 26.6855 19.8346C26.9062 19.8426 27.0109 19.7849 27.1028 19.5683C28.7636 15.6797 33.1113 13.5991 37.1965 14.7541C39.798 15.4904 41.6457 17.1155 42.7524 19.5731C42.8071 19.6951 42.82 19.8346 43.023 19.833C44.2247 19.8234 45.4248 19.8282 46.6265 19.8298C46.7393 19.8298 46.8005 19.8057 46.8472 19.687C47.1146 19.0165 47.3901 18.3475 47.6784 17.6834C47.759 17.5005 47.7139 17.4315 47.5479 17.3401C43.8204 15.3108 42.0243 11.3821 42.957 7.28333C43.0085 7.05714 42.9457 6.99136 42.7556 6.91597C41.9614 6.59833 41.1673 6.27749 40.3844 5.93259C40.154 5.83152 40.0687 5.88286 39.9446 6.08018C37.7554 9.54044 33.5172 11.1045 29.606 9.89176C29.3628 9.81637 29.2855 9.87733 29.1969 10.0907C28.0532 12.8451 26.9014 15.5963 25.7528 18.3475C25.5531 18.8272 25.355 19.3084 25.1407 19.8266V19.8298ZM9.00944 13.1788C9.00944 13.1788 9.00944 13.1852 9.00944 13.1884C7.97042 13.1884 6.9298 13.1547 5.8924 13.1964C4.17843 13.2654 2.7367 14.9402 2.92356 16.5941C3.13781 18.4935 4.62625 19.825 6.54802 19.8298C7.91082 19.833 9.27201 19.8298 10.6348 19.8298C11.139 19.8298 11.1438 19.8298 11.2373 19.3421C11.6126 17.3802 11.9799 15.4166 12.3617 13.4563C12.4068 13.2221 12.3617 13.1692 12.1265 13.1724C11.0875 13.1836 10.0484 13.1772 9.00782 13.1772L9.00944 13.1788ZM48.2309 43.0956C49.4214 43.0956 50.6118 43.0908 51.8022 43.1004C52.0197 43.102 52.0954 43.0555 52.0954 42.8197C52.0858 40.6187 52.0874 38.4193 52.0954 36.2184C52.0954 35.9986 52.0229 35.9537 51.8184 35.9537C49.4165 35.9601 47.0163 35.9601 44.6145 35.9537C44.4003 35.9537 44.3165 35.9954 44.3165 36.2328C44.3262 38.4225 44.3262 40.6139 44.3165 42.8036C44.3165 43.0539 44.4035 43.1004 44.629 43.0988C45.8291 43.0892 47.0308 43.094 48.2309 43.094V43.0956ZM45.6117 9.34954C45.5939 9.64311 45.6246 9.93347 45.6713 10.2206C45.987 12.1713 46.9906 13.6616 48.6933 14.6835C48.8415 14.7718 48.9091 14.7557 48.9784 14.5889C49.4552 13.429 49.9481 12.274 50.4217 11.1126C50.6295 10.604 50.4217 10.1051 49.9143 9.89176C48.5869 9.3335 47.2548 8.79288 45.9274 8.23302C45.7309 8.1496 45.7003 8.23944 45.6842 8.38863C45.6471 8.70786 45.5923 9.02549 45.6133 9.34794L45.6117 9.34954ZM32.2559 7.41327C34.3162 7.35873 35.9915 6.54379 37.2512 4.90269C37.3511 4.77275 37.4027 4.69735 37.19 4.61072C35.8659 4.07332 34.5498 3.51666 33.2257 2.97604C32.6812 2.75306 32.1963 2.9616 31.966 3.50703C31.4843 4.64281 31.0139 5.785 30.5291 6.92078C30.4534 7.09724 30.484 7.16462 30.6676 7.20793C31.1895 7.32825 31.7147 7.42289 32.2559 7.41487V7.41327ZM30.2456 19.8122H39.6031C38.4191 18.2128 36.9001 17.3545 34.9525 17.3465C32.9808 17.3385 31.4392 18.1951 30.2456 19.8122Z" fill="#1A9FFF"/>
<path d="M45.6198 39.5128C45.6279 38.5149 46.4639 37.6936 47.4627 37.7032C48.4711 37.7128 49.2894 38.539 49.2781 39.5368C49.2685 40.541 48.4389 41.356 47.4369 41.348C46.4349 41.3383 45.6102 40.5074 45.6182 39.5128H45.6198Z" fill="#1A9FFF"/>
</g>
<defs>
<clipPath id="clip0_1123_1722">
<rect width="55" height="58" fill="white"/>
</clipPath>
</defs>
</svg>
