<svg width="45" height="57" viewBox="0 0 45 57" fill="none" xmlns="http://www.w3.org/2000/svg">
<g clip-path="url(#clip0_1123_1709)">
<path d="M44.9903 7.36743C44.9887 5.71133 44.3859 4.16122 43.1999 2.7582C42.1191 1.48015 40.7176 0.626002 39.0358 0.21791C38.7571 0.149895 38.4719 0.105606 38.1948 0.0628987C38.0684 0.0439177 37.9421 0.0233549 37.8157 0.00121038L37.8011 -0.00195312H7.21348L7.17783 0.00121038C6.99312 0.0407542 6.80031 0.0708074 6.61398 0.099279C6.32395 0.143568 6.0242 0.189439 5.7293 0.278017C2.80794 1.15114 0.943002 3.06348 0.186332 5.96125C0.0631909 6.43419 0 6.94668 0 7.48448C0 11.4958 0 15.5071 0 19.5184C0 29.3791 0 39.5751 0.00810139 49.6034C0.00810139 51.2816 0.612465 52.8412 1.80175 54.2411C2.95539 55.6014 4.46549 56.4792 6.28668 56.8509C6.49246 56.8937 6.70309 56.9237 6.90563 56.9538C6.9996 56.968 7.09358 56.9822 7.18756 56.9965H37.8043H37.8222C38.0069 56.9569 38.1997 56.9269 38.386 56.8984C38.676 56.8541 38.9758 56.8082 39.2707 56.7197C42.1904 55.8513 44.057 53.9389 44.8153 51.038C44.9384 50.5666 45.0016 50.0542 45.0016 49.5164C45.0016 45.6411 45.0016 41.7642 45.0016 37.8889C45.0016 27.8859 45.0016 17.5413 44.9919 7.36743H44.9903ZM27.4524 54.5574C26.0379 54.5574 24.625 54.5574 23.2105 54.5574H19.2408C15.9322 54.5606 12.6236 54.5606 9.31498 54.5558C9.12865 54.5558 8.94394 54.559 8.75761 54.5606C8.09815 54.5701 7.41601 54.5811 6.75818 54.4388C4.6826 53.9896 3.03964 52.2528 2.76095 50.2171C2.72369 49.9403 2.70424 49.6366 2.70424 49.3155C2.701 35.4926 2.701 21.6696 2.70262 7.8467C2.70262 5.3412 4.38123 3.296 6.8797 2.7582C7.27505 2.67279 7.6785 2.66172 8.02038 2.66172H9.03305C11.5024 2.66172 13.9733 2.66172 16.4442 2.66172C23.2364 2.6633 30.2619 2.66488 37.1692 2.65223C39.6045 2.64274 41.7254 4.1976 42.3346 6.42154C42.4545 6.8581 42.5096 7.3263 42.5096 7.89257C42.5096 13.5078 42.5096 19.123 42.5096 24.7398V33.9219C42.5096 39.0689 42.5096 44.2159 42.5112 49.3629C42.5112 50.6299 42.1564 51.6834 41.4224 52.5865C40.3676 53.8867 39.005 54.5479 37.3717 54.5527C34.0647 54.5622 30.7027 54.5606 27.4524 54.559V54.5574Z" fill="#1A9FFF"/>
<path d="M36.845 16.3977C37.2809 16.3977 37.6438 16.2664 37.895 16.0196C38.1396 15.7792 38.2611 15.4486 38.2579 15.0358C38.2466 13.4825 38.2482 11.9039 38.2498 10.376C38.2498 9.52971 38.2514 8.6819 38.2498 7.83566C38.2498 6.93406 37.7799 6.47852 36.8564 6.47852H8.30058C7.31707 6.47852 6.85691 6.92457 6.85691 7.88311C6.85367 10.2352 6.85691 12.5872 6.85691 14.9393V14.9962C6.85691 15.1687 6.85691 15.3474 6.91362 15.5293C7.10157 16.1209 7.55687 16.3961 8.34594 16.3961H19.0106H26.0475C29.6461 16.3961 33.2448 16.3961 36.8434 16.3977H36.845ZM9.64379 13.8321C9.48986 13.8321 9.47042 13.8099 9.4688 13.8068C9.46394 13.802 9.44611 13.772 9.44611 13.6249C9.45746 12.2899 9.45746 10.8742 9.44449 9.16908C9.44449 9.05993 9.45584 9.03463 9.45746 9.03304C9.45746 9.03304 9.48176 9.01723 9.58384 9.01723C17.4778 9.02355 25.9665 9.02355 35.5342 9.01881C35.6331 9.01881 35.6574 9.03304 35.6574 9.0283C35.6574 9.0283 35.6719 9.05203 35.6703 9.1406C35.6574 10.8932 35.659 12.3263 35.6752 13.6549C35.6768 13.7862 35.6541 13.8099 35.6541 13.8099C35.6493 13.8147 35.6217 13.8305 35.4775 13.8305H35.4743C31.9696 13.8242 28.4066 13.8242 24.9619 13.8242H22.559H19.9957C16.6029 13.8242 13.0934 13.8242 9.64217 13.8321H9.64379Z" fill="#1A9FFF"/>
<path d="M26.1109 40.3892C23.5525 40.3781 21.1885 40.3781 18.8812 40.3892C18.0906 40.3923 17.5996 40.8922 17.5996 41.6909V44.1205V45.1613V46.1942C17.5996 47.0357 17.5996 47.8772 17.5996 48.7187C17.5996 49.3134 17.948 49.7832 18.4843 49.9129C18.7014 49.9651 18.9234 49.9698 19.168 49.9714C20.3492 49.973 21.5304 49.973 22.7116 49.973C23.4342 49.973 24.1585 49.973 24.8828 49.973H25.8355C25.9343 49.973 26.0396 49.973 26.145 49.9635C26.9211 49.9002 27.4023 49.3893 27.4023 48.6269C27.4023 46.3128 27.4023 44.0003 27.4023 41.6862C27.4023 40.9016 26.8951 40.3923 26.1109 40.3876V40.3892ZM24.9184 47.3283C24.9184 47.3995 24.9119 47.4232 24.9152 47.4248C24.9103 47.4264 24.8892 47.4374 24.8228 47.4343C23.3273 47.4248 21.8431 47.4248 20.4124 47.4343C20.3606 47.4343 20.3395 47.4295 20.3314 47.4295H20.3298C20.3265 47.4216 20.3201 47.3947 20.3217 47.3251C20.3282 46.7984 20.3265 46.2622 20.3265 45.7434V45.1566C20.3265 44.9604 20.3265 44.7659 20.3265 44.5697C20.3265 44.0604 20.3298 43.5353 20.3201 43.0165C20.3201 42.9785 20.3217 42.9563 20.3233 42.9453C20.3363 42.9421 20.3622 42.9421 20.4011 42.9405C21.9322 42.9484 23.4261 42.9484 24.8406 42.9405C24.8795 42.9405 24.9006 42.9437 24.9119 42.9453C24.9135 42.9579 24.9168 42.9801 24.9168 43.0244C24.9087 44.4432 24.9087 45.8905 24.9168 47.3299L24.9184 47.3283Z" fill="#1A9FFF"/>
<path d="M38.2482 46.1669C38.2498 45.83 38.253 45.4931 38.253 45.1562C38.253 44.8193 38.2514 44.4744 38.2498 44.1344C38.2449 43.353 38.2417 42.5431 38.2595 41.7491C38.2692 41.3347 38.1509 41.0025 37.9079 40.7605C37.6616 40.5153 37.2922 40.3809 36.8661 40.3809H36.858C35.2685 40.3872 33.6514 40.3872 32.0879 40.3856C31.349 40.3856 30.6102 40.3856 29.8713 40.3856C28.9526 40.3856 28.4455 40.8854 28.4438 41.7934C28.4438 42.2711 28.4438 42.7487 28.4438 43.2264V43.8465V45.2131C28.4438 46.3377 28.4438 47.4624 28.4438 48.5854C28.4438 49.4601 28.9121 49.9378 29.7968 49.9694C30.1176 49.9805 30.4433 49.9789 30.7576 49.9758C30.8937 49.9758 31.0298 49.9742 31.1643 49.9742C31.7201 49.9773 32.2693 49.9742 32.8218 49.9726C34.1229 49.971 35.4661 49.9679 36.7883 49.9789H36.8045C37.2468 49.9789 37.6179 49.8413 37.8803 49.5803C38.1428 49.3193 38.2741 48.9571 38.2611 48.5348C38.2384 47.7471 38.2433 46.9451 38.2482 46.1685V46.1669ZM35.6687 44.6294V45.0534L35.6654 45.7936C35.6654 46.3045 35.6622 46.8328 35.6719 47.3532C35.6719 47.3943 35.6703 47.4181 35.6671 47.4291C35.6557 47.4323 35.6346 47.4339 35.5877 47.4339C34.8747 47.4307 34.144 47.4291 33.3825 47.4291C32.6679 47.4291 31.9258 47.4291 31.1465 47.4339C31.1092 47.4339 31.0865 47.4323 31.0752 47.4307C31.0736 47.4197 31.0719 47.4023 31.0719 47.3738C31.08 45.985 31.08 44.5156 31.0719 43.0081C31.0719 42.9765 31.0736 42.956 31.0752 42.9449C31.0865 42.9433 31.1076 42.9417 31.14 42.9417C32.7262 42.9496 34.1894 42.948 35.6103 42.9417C35.6379 42.9417 35.6573 42.9417 35.6687 42.9449C35.6703 42.9575 35.6719 42.9781 35.6719 43.0145C35.6654 43.5523 35.6671 44.0916 35.6671 44.6294H35.6687Z" fill="#1A9FFF"/>
<path d="M26.0494 19.6468H26.0477C25.5212 19.6468 24.9962 19.6468 24.4696 19.6452C24.1083 19.6452 23.7469 19.6436 23.3872 19.6436H22.2271C21.1642 19.6405 20.0657 19.6389 18.9849 19.6436C18.0662 19.6484 17.5996 20.1087 17.5996 21.0118V25.1291C17.5996 26.0703 17.5996 27.0098 17.5996 27.951C17.5996 28.049 17.6028 28.1645 17.6304 28.2752C17.7422 28.7071 18.0727 29.2211 19.006 29.2211H20.5015C21.5304 29.2243 22.5593 29.2259 23.5865 29.2243C23.8053 29.2243 24.0224 29.2243 24.2411 29.2259C24.4388 29.2259 24.6397 29.2275 24.8406 29.2275C25.2911 29.2275 25.7464 29.2211 26.1968 29.1974C26.9616 29.1563 27.4007 28.6817 27.4007 27.8972C27.4007 25.5847 27.4007 23.2706 27.4007 20.9581C27.4007 20.5531 27.2759 20.2194 27.041 19.9916C26.806 19.7654 26.4642 19.6452 26.0494 19.6452V19.6468ZM24.9184 26.5907C24.9184 26.6318 24.9152 26.6539 24.9135 26.6666C24.9022 26.6682 24.8795 26.6713 24.839 26.6713C24.2914 26.6634 23.7356 26.665 23.1977 26.6666H22.5868H21.9857C21.464 26.6666 20.9244 26.6634 20.3946 26.6729C20.3573 26.6761 20.3346 26.6713 20.3233 26.6682C20.3201 26.6555 20.3184 26.6334 20.3184 26.5907C20.3265 25.1592 20.3265 23.7214 20.3184 22.3136C20.3184 22.2171 20.3282 22.1918 20.3282 22.1902C20.3282 22.1902 20.3525 22.176 20.4416 22.1776C21.7362 22.1887 23.1199 22.1887 24.7936 22.1776H24.8017C24.8844 22.1776 24.9071 22.1855 24.9054 22.1823C24.9054 22.1855 24.9168 22.2076 24.9168 22.2851C24.9071 23.6059 24.9071 25.0152 24.9168 26.5907H24.9184Z" fill="#1A9FFF"/>
<path d="M15.2356 40.3857C14.4433 40.3857 13.651 40.3857 12.857 40.3857H11.8006C11.4539 40.3857 11.1088 40.3857 10.762 40.3857C9.95675 40.3873 9.12555 40.3889 8.30893 40.381C7.83257 40.3762 7.46476 40.4996 7.21362 40.7464C6.96734 40.9884 6.84582 41.3395 6.8523 41.7888C6.86364 42.5749 6.86202 43.3737 6.85878 44.1471C6.85878 44.4872 6.85716 44.8273 6.85716 45.1674V45.9867C6.85716 46.8314 6.85716 47.676 6.85878 48.5207V48.5681C6.85878 48.7627 6.85878 48.9652 6.93493 49.1708C7.13423 49.7054 7.56522 49.9664 8.25384 49.968C9.27785 49.9696 10.3002 49.9712 11.3243 49.9712C12.1992 49.9712 13.0725 49.9712 13.9475 49.9712H15.2129C15.2875 49.9712 15.3669 49.9648 15.4689 49.9522C16.1543 49.8668 16.6728 49.2863 16.6712 48.6045L16.6663 41.7824C16.6663 40.8666 16.1705 40.3826 15.2372 40.3826L15.2356 40.3857ZM9.4496 43.0099C9.4496 42.9766 9.45122 42.9561 9.45284 42.9434C9.46419 42.9418 9.48363 42.9434 9.51441 42.9403C11.0326 42.9482 12.5362 42.9482 13.9848 42.9403C14.0123 42.9418 14.0318 42.9403 14.0431 42.9434C14.0447 42.9561 14.0463 42.9766 14.0463 43.013C14.0399 44.5742 14.0399 45.993 14.0463 47.3486C14.0463 47.3929 14.0431 47.4166 14.0415 47.4277C14.0301 47.4293 14.0074 47.4324 13.9686 47.4324C13.6283 47.4277 13.2832 47.4261 12.9429 47.4261C12.7371 47.4261 12.533 47.4261 12.3321 47.4261H11.718H11.1282C10.613 47.4261 10.0799 47.4229 9.55492 47.4309C9.54844 47.4309 9.54358 47.4309 9.53872 47.4309C9.47715 47.4309 9.45446 47.4261 9.45608 47.4309C9.45446 47.4261 9.44636 47.4024 9.44636 47.3439C9.45608 46.0468 9.45771 44.6691 9.45122 43.0083L9.4496 43.0099Z" fill="#1A9FFF"/>
<path d="M18.9133 39.5891C19.7494 39.5891 20.5855 39.5891 21.4215 39.5891H22.4958H23.57H24.6442C25.1222 39.5891 25.6002 39.5891 26.0782 39.5891C26.8932 39.5891 27.3987 39.0956 27.4003 38.3032C27.402 35.9717 27.402 33.6402 27.4003 31.3087C27.4003 30.513 26.8948 30.0195 26.0814 30.0195C23.6931 30.0195 21.3049 30.0195 18.9166 30.0195C18.1032 30.0195 17.5977 30.513 17.5977 31.3055C17.5977 33.637 17.5977 35.9685 17.5977 38.3C17.5977 39.094 18.1016 39.5891 18.9133 39.5891ZM20.3181 32.6895C20.3181 32.5962 20.3311 32.5741 20.3311 32.5741C20.3327 32.5725 20.3554 32.5582 20.4558 32.5598C21.7602 32.5677 23.1439 32.5677 24.8095 32.5598H24.816C24.8857 32.5598 24.9084 32.5662 24.9084 32.5614C24.91 32.5677 24.9181 32.5899 24.9181 32.65C24.9067 34.1811 24.9067 35.6 24.9181 36.9871C24.9181 37.0204 24.9165 37.0409 24.9148 37.052C24.897 37.0536 24.8678 37.0552 24.8273 37.0552C24.2862 37.0488 23.745 37.0504 23.2038 37.0504H22.4488V37.0552H22.0129C21.4912 37.0552 20.9533 37.052 20.4218 37.0599C20.3683 37.0615 20.3408 37.0567 20.3311 37.0567C20.3278 37.0567 20.3262 37.0567 20.3262 37.0567C20.323 37.0504 20.3165 37.0251 20.3165 36.9666C20.3262 35.5525 20.3278 34.1131 20.3165 32.6879L20.3181 32.6895Z" fill="#1A9FFF"/>
<path d="M38.2499 20.9606C38.2467 20.1128 37.7703 19.6446 36.9099 19.643C35.9977 19.6415 35.0839 19.643 34.1717 19.643C32.7539 19.643 31.2892 19.6446 29.8471 19.6367H29.8342C29.4064 19.6367 29.0662 19.7569 28.8215 19.9958C28.5704 20.2409 28.4375 20.6 28.4375 21.035C28.4407 22.3747 28.4391 23.7129 28.4391 25.0526C28.4391 25.978 28.4391 26.9033 28.4391 27.8286C28.4391 28.7081 28.9463 29.2126 29.8277 29.2158C31.1045 29.219 32.3148 29.2221 33.4749 29.2221C34.6351 29.2221 35.7757 29.2206 36.8646 29.2158C37.78 29.2126 38.245 28.7508 38.2483 27.8413C38.2515 27.0425 38.2499 26.2421 38.2483 25.4433V24.4294V23.3807C38.2483 22.574 38.2483 21.7658 38.2467 20.9591L38.2499 20.9606ZM31.0705 22.2403C31.0705 22.2102 31.0721 22.1912 31.0737 22.1802C31.085 22.1786 31.1045 22.1754 31.1417 22.177C32.8706 22.1849 34.2818 22.1849 35.5829 22.177H35.5878C35.638 22.177 35.6607 22.1818 35.6639 22.1802C35.6672 22.1897 35.672 22.215 35.672 22.2846C35.6656 22.8113 35.6656 23.3459 35.6672 23.8632V24.295L35.6639 25.0368C35.6639 25.5461 35.6607 26.0744 35.6704 26.5933C35.6704 26.6312 35.6688 26.6534 35.6656 26.6644C35.6526 26.6676 35.6299 26.6692 35.5845 26.6692C34.8684 26.666 34.1295 26.6644 33.3761 26.6644C32.6227 26.6644 31.9 26.6644 31.1434 26.6692C31.1061 26.6724 31.0867 26.6676 31.0737 26.666C31.0721 26.655 31.0705 26.636 31.0705 26.6059C31.0786 25.1681 31.0786 23.6987 31.0705 22.2419V22.2403Z" fill="#1A9FFF"/>
<path d="M29.8213 39.5888C30.471 39.5856 31.1289 39.5888 31.7818 39.5872C33.4394 39.584 35.1553 39.5808 36.8403 39.5982C36.8468 39.5982 36.8533 39.5982 36.8598 39.5982C37.2778 39.5982 37.6456 39.4622 37.8968 39.2123C38.1447 38.9655 38.2711 38.6191 38.2597 38.2111C38.2387 37.4249 38.2435 36.623 38.2484 35.8479C38.25 35.5094 38.2532 35.1693 38.2532 34.8308V33.7869C38.2532 32.9691 38.2549 32.1498 38.2532 31.332C38.25 30.4842 37.772 30.0176 36.9052 30.0176H29.7954C28.9707 30.0176 28.4538 30.5048 28.4489 31.2877C28.4343 33.6271 28.4343 35.9919 28.4489 38.317C28.4538 39.1127 28.9674 39.5888 29.8229 39.5888H29.8213ZM35.6705 37.0342C35.6705 37.0342 35.6705 37.0469 35.6705 37.0532C35.664 37.0532 35.6559 37.0564 35.6462 37.0532C34.1134 37.0516 32.6147 37.05 31.1256 37.0595C31.1046 37.0595 31.0884 37.0595 31.0786 37.0564C31.0754 37.0311 31.0754 36.9899 31.0754 36.971C31.0786 36.43 31.0786 35.889 31.0786 35.3481V34.7739V34.2013C31.0786 33.6872 31.0803 33.1558 31.0738 32.6338C31.0738 32.5974 31.0754 32.5769 31.0786 32.5658C31.0884 32.5642 31.1078 32.5579 31.1418 32.561C32.4624 32.5674 33.8833 32.5674 35.6138 32.561C35.643 32.561 35.6608 32.561 35.6721 32.5642C35.6721 32.5737 35.6754 32.5879 35.6754 32.6116C35.6689 34.0162 35.6673 35.462 35.6721 37.0358L35.6705 37.0342Z" fill="#1A9FFF"/>
<path d="M6.87311 28.0602C6.88122 28.6866 7.27332 29.1058 7.91819 29.1801C8.2779 29.2212 8.63922 29.2323 8.9973 29.2323C9.19173 29.2323 9.38617 29.2291 9.57736 29.226C9.788 29.2228 9.99863 29.2197 10.2093 29.2197C12.0224 29.226 13.816 29.2244 15.1754 29.2228C16.0747 29.2228 16.6564 28.704 16.6596 27.9052C16.6693 25.6781 16.6693 23.3245 16.6596 20.9076C16.6564 20.1341 16.1622 19.6516 15.3682 19.6485C13.2959 19.6406 11.0518 19.639 8.30544 19.6422H8.26655C8.07374 19.6422 7.87121 19.6422 7.66543 19.7165C7.10157 19.9221 6.85853 20.3065 6.85529 21.0025C6.85043 21.8044 6.85205 22.6064 6.85367 23.4083V24.4143L6.86663 24.5725C6.86663 24.8714 6.86663 25.1704 6.86501 25.4693C6.86339 26.3171 6.86015 27.195 6.87149 28.0587L6.87311 28.0602ZM14.0428 23.8512V24.4507C14.0428 24.6452 14.0428 24.8414 14.0428 25.0359C14.0428 25.5452 14.0396 26.072 14.0493 26.5908C14.0493 26.6287 14.0477 26.6509 14.0445 26.662C14.0331 26.6651 14.0104 26.6683 13.9618 26.6667C13.2359 26.6635 12.5052 26.662 11.755 26.662C11.0048 26.662 10.287 26.662 9.52065 26.6667C9.48176 26.6667 9.46232 26.6651 9.44936 26.6635C9.44774 26.6525 9.44612 26.6351 9.44612 26.605C9.45584 25.1577 9.45584 23.6883 9.44936 22.241C9.44936 22.2093 9.45098 22.1904 9.4526 22.1793C9.46394 22.1777 9.48662 22.1745 9.52065 22.1761C11.0858 22.1824 12.5392 22.1824 13.9618 22.1761C14.0056 22.1777 14.0315 22.1793 14.0445 22.1809C14.0477 22.1919 14.0493 22.2141 14.0493 22.252C14.0412 22.7851 14.0428 23.3276 14.0445 23.8512H14.0428Z" fill="#1A9FFF"/>
<path d="M8.2115 39.5895C9.38944 39.5895 10.5674 39.5895 11.7469 39.5895C12.9265 39.5895 14.1093 39.5895 15.2905 39.5895C16.0925 39.5895 16.6548 39.0692 16.6596 38.3226C16.6726 36.0607 16.6726 33.7529 16.6596 31.2664C16.6564 30.534 16.1411 30.0215 15.4104 30.02C12.9816 30.0168 10.5528 30.0168 8.124 30.02C7.39812 30.02 6.88449 30.5008 6.87315 31.1873C6.86019 32.0272 6.86343 32.8798 6.86505 33.7054C6.86505 33.9996 6.86667 34.2938 6.86667 34.5881H6.85533V34.7462C6.85533 35.0974 6.85533 35.4469 6.85533 35.7981C6.85371 36.6095 6.85209 37.4494 6.86019 38.2751C6.86829 39.1229 7.34951 39.5895 8.21312 39.5895H8.2115ZM9.44939 32.6504C9.44939 32.6014 9.45263 32.5776 9.45587 32.5666C9.46722 32.565 9.48828 32.5602 9.52879 32.5602C10.9449 32.5666 12.4064 32.5682 13.9975 32.5602C14.0186 32.5602 14.0348 32.5602 14.0461 32.5618C14.0461 32.5729 14.0477 32.5871 14.0477 32.6093C14.0429 33.813 14.038 35.3995 14.0494 37.0002C14.0494 37.0239 14.0494 37.0398 14.0461 37.0508C14.0332 37.0508 14.0105 37.054 13.9732 37.0524C13.4304 37.0477 12.886 37.0477 12.3432 37.0493H11.5963V37.0556H11.1491C10.6225 37.054 10.0764 37.0524 9.54013 37.0603C9.48504 37.0603 9.46073 37.0556 9.45587 37.0556C9.45263 37.0493 9.44453 37.0239 9.44615 36.9528C9.45425 35.5782 9.45587 34.1293 9.44939 32.6488V32.6504Z" fill="#1A9FFF"/>
</g>
<defs>
<clipPath id="clip0_1123_1709">
<rect width="45" height="57" fill="white"/>
</clipPath>
</defs>
</svg>
