<svg width="57" height="53" viewBox="0 0 57 53" fill="none" xmlns="http://www.w3.org/2000/svg">
<g clip-path="url(#clip0_1123_1728)">
<path d="M25.3832 30.3145H17.2607C16.6698 30.3145 16.1914 30.8284 16.1914 31.4632C16.1914 32.0981 16.6698 32.612 17.2607 32.612H25.3832C25.9741 32.612 26.4525 32.0981 26.4525 31.4632C26.4525 30.8284 25.9741 30.3145 25.3832 30.3145Z" fill="#1A9FFF"/>
<path d="M25.3832 34.1445H17.2607C16.6698 34.1445 16.1914 34.6585 16.1914 35.2933C16.1914 35.9282 16.6698 36.4421 17.2607 36.4421H25.3832C25.9741 36.4421 26.4525 35.9282 26.4525 35.2933C26.4525 34.6585 25.9741 34.1445 25.3832 34.1445Z" fill="#1A9FFF"/>
<path d="M35.2307 42.207H31.5107C30.9198 42.207 30.4414 42.721 30.4414 43.3558C30.4414 43.9907 30.9198 44.5046 31.5107 44.5046H35.2307C35.8217 44.5046 36.3 43.9907 36.3 43.3558C36.3 42.721 35.8217 42.207 35.2307 42.207Z" fill="#1A9FFF"/>
<path d="M28.0917 42.207H21.5366C20.9457 42.207 20.4673 42.721 20.4673 43.3558C20.4673 43.9907 20.9457 44.5046 21.5366 44.5046H28.0917C28.6826 44.5046 29.161 43.9907 29.161 43.3558C29.161 42.721 28.6826 42.207 28.0917 42.207Z" fill="#1A9FFF"/>
<path d="M10.704 30.3145H7.14156C6.55064 30.3145 6.07227 30.8284 6.07227 31.4632C6.07227 32.0981 6.55064 32.612 7.14156 32.612H10.704C11.2949 32.612 11.7733 32.0981 11.7733 31.4632C11.7733 30.8284 11.2949 30.3145 10.704 30.3145Z" fill="#1A9FFF"/>
<path d="M10.704 34.1445H7.14156C6.55064 34.1445 6.07227 34.6585 6.07227 35.2933C6.07227 35.9282 6.55064 36.4421 7.14156 36.4421H10.704C11.2949 36.4421 11.7733 35.9282 11.7733 35.2933C11.7733 34.6585 11.2949 34.1445 10.704 34.1445Z" fill="#1A9FFF"/>
<path d="M54.3569 -0.00044156H13.5406C11.3879 -0.00044156 9.63623 1.88146 9.63623 4.19415V4.66878C9.63623 5.30364 10.1146 5.81757 10.7055 5.81757C11.2965 5.81757 11.7748 5.30364 11.7748 4.66878V4.19415C11.7748 3.14815 12.567 2.29563 13.542 2.29563H19.1825C18.9124 2.867 18.7576 3.51092 18.7576 4.19415V4.66878C18.7576 5.30364 19.236 5.81757 19.8269 5.81757C20.4179 5.81757 20.8962 5.30364 20.8962 4.66878V4.19415C20.8962 3.14815 21.6884 2.29563 22.6634 2.29563H54.3583C54.9492 2.29563 55.4276 1.78169 55.4276 1.14684C55.4276 0.511979 54.9492 -0.00195312 54.3583 -0.00195312L54.3569 -0.00044156Z" fill="#1A9FFF"/>
<path d="M57.9307 46.3404H55.6036V39.2209C55.6036 38.5861 55.1252 38.0721 54.5343 38.0721H53.0387V33.2502C53.0387 30.8196 51.4319 28.7836 49.3003 28.3044C48.8543 26.1096 47.0323 24.459 44.8571 24.459H41.1272C38.952 24.459 37.13 26.1081 36.684 28.3044C34.551 28.7836 32.9457 30.8181 32.9457 33.2502V38.0721H29.5253V26.9198C29.5253 26.285 29.047 25.771 28.456 25.771H23.2784L22.513 7.83026C22.4862 7.21656 22.0163 6.73438 21.4451 6.73438H17.3001C16.7289 6.73438 16.259 7.21656 16.2322 7.83026L15.4669 25.771H14.7268L13.9614 7.83026C13.9347 7.21656 13.4647 6.73438 12.8935 6.73438H8.74856C8.17733 6.73438 7.7074 7.21656 7.68067 7.83026L6.91527 25.771H3.8129C3.22197 25.771 2.7436 26.285 2.7436 26.9198V46.3389H1.0693C0.478371 46.3389 0 46.8528 0 47.4877C0 48.1225 0.478371 48.6365 1.0693 48.6365H57.9321C58.523 48.6365 59.0014 48.1225 59.0014 47.4877C59.0014 46.8528 58.523 46.3389 57.9321 46.3389L57.9307 46.3404ZM9.77002 9.03346H11.872L11.9424 10.6765H9.69967L9.77002 9.03346ZM9.60259 12.9726H12.0423L12.5882 25.7725H9.05668L9.60259 12.9726ZM13.2199 46.3404H4.8836V28.0701H13.2199V46.3404ZM48.3366 30.4947C49.3693 30.4947 50.2585 31.1552 50.6651 32.1015H46.008C46.4146 31.1537 47.3038 30.4947 48.3366 30.4947ZM50.9015 34.399V38.0736H45.7716V34.399H50.9015ZM41.1272 26.7566H44.8571C45.8673 26.7566 46.734 27.4292 47.0914 28.3785C45.1005 28.9665 43.633 30.927 43.633 33.2502V38.0721H42.3513V33.2502C42.3513 30.927 40.8838 28.9665 38.8929 28.3785C39.2503 27.4292 40.117 26.7566 41.1272 26.7566ZM37.6478 30.4947C38.6805 30.4947 39.5697 31.1552 39.9763 32.1015H35.3192C35.7259 31.1537 36.6151 30.4947 37.6478 30.4947ZM35.0829 34.399H40.2127V38.0736H35.0829V34.399ZM18.3216 9.03346H20.4236L20.494 10.6765H18.2513L18.3216 9.03346ZM18.1542 12.9726H20.5939L21.1398 25.7725H17.6083L18.1542 12.9726ZM15.3571 28.0686H27.3881V38.0721H15.3571V28.0686ZM37.863 46.3404H15.3571V40.3697H37.863V46.3404ZM53.4678 46.3404H40.0016V40.3697H53.4678V46.3404Z" fill="#1A9FFF"/>
<path d="M57.9307 50.7031H1.0693C0.478371 50.7031 0 51.2171 0 51.8519C0 52.4868 0.478371 53.0007 1.0693 53.0007H57.9321C58.523 53.0007 59.0014 52.4868 59.0014 51.8519C59.0014 51.2171 58.523 50.7031 57.9321 50.7031H57.9307Z" fill="#1A9FFF"/>
<path d="M17.9868 44.5046C18.5773 44.5046 19.0561 43.9903 19.0561 43.3558C19.0561 42.7214 18.5773 42.207 17.9868 42.207C17.3962 42.207 16.9175 42.7214 16.9175 43.3558C16.9175 43.9903 17.3962 44.5046 17.9868 44.5046Z" fill="#1A9FFF"/>
</g>
<defs>
<clipPath id="clip0_1123_1728">
<rect width="59" height="53" fill="white"/>
</clipPath>
</defs>
</svg>
