<svg width="43" height="44" viewBox="0 0 43 44" fill="none" xmlns="http://www.w3.org/2000/svg">
<rect x="0.5" y="0.634766" width="42" height="42" rx="21" stroke="#474747"/>
<path d="M20.5165 25.3163C20.3794 25.4486 20.2424 25.5731 20.1053 25.6977C19.6617 26.1102 19.2262 26.5227 18.7827 26.9274C18.5972 27.0986 18.3795 27.2387 18.1214 27.2932C18.0811 27.301 18.0408 27.301 17.9924 27.3088C17.9924 27.2854 17.9843 27.2621 17.9924 27.2465C18.0327 26.7017 18.0811 26.1569 18.1214 25.612C18.1618 25.1217 18.2021 24.6314 18.2424 24.1333C18.2505 23.9932 18.2585 23.8531 18.2747 23.713C18.2747 23.6818 18.2988 23.6507 18.323 23.6351C18.944 23.0826 19.5649 22.5377 20.1859 21.9851C21.8068 20.5531 23.4278 19.1288 25.0487 17.6967C25.0971 17.6578 25.1374 17.6188 25.1697 17.5721C25.2342 17.4865 25.2019 17.4165 25.0971 17.3931C24.9842 17.3698 24.8713 17.3853 24.7745 17.4476C24.6777 17.5021 24.589 17.5566 24.5003 17.6111C21.7826 19.2611 19.0569 20.9189 16.3311 22.5767C16.2505 22.6234 16.186 22.6389 16.0892 22.6078C14.9199 22.2575 13.7506 21.9151 12.5812 21.5726C12.4603 21.5337 12.3393 21.5104 12.2345 21.4559C11.9845 21.3391 11.9361 21.1368 12.0812 20.9111C12.1699 20.771 12.307 20.6776 12.4603 20.6153C12.8312 20.4674 13.2022 20.3196 13.5731 20.1873C15.557 19.4479 17.5408 18.7085 19.5246 17.9691C21.9843 17.0507 24.4519 16.1323 26.9116 15.2217C27.0083 15.1827 27.1132 15.1594 27.218 15.1438C27.6454 15.0738 27.9196 15.424 27.9761 15.7042C28.0245 15.9221 27.9922 16.1323 27.9438 16.3502C27.6374 17.7356 27.3309 19.1288 27.0245 20.5141C26.6938 22.0241 26.3632 23.5262 26.0326 25.0361C25.8632 25.7911 25.7019 26.546 25.5326 27.301C25.5003 27.4566 25.4439 27.6123 25.3793 27.7602C25.2181 28.0871 24.9519 28.196 24.589 28.1026C24.3955 28.0559 24.2181 27.9703 24.0568 27.8536C22.8955 27.0208 21.7423 26.188 20.5811 25.363C20.5569 25.3396 20.5407 25.3319 20.5165 25.3163Z" fill="#999999"/>
</svg>
