<svg width="33" height="33" viewBox="0 0 33 33" fill="none" xmlns="http://www.w3.org/2000/svg">
<rect width="33" height="33" rx="16.5" fill="#4DA0D5"/>
<path d="M15.7449 19.3254C15.6397 19.427 15.5345 19.5226 15.4293 19.6181C15.0889 19.9347 14.7547 20.2513 14.4143 20.5619C14.272 20.6933 14.1049 20.8008 13.9068 20.8426C13.8759 20.8486 13.8449 20.8486 13.8078 20.8545C13.8078 20.8366 13.8016 20.8187 13.8078 20.8068C13.8387 20.3886 13.8759 19.9705 13.9068 19.5524C13.9378 19.1761 13.9687 18.7998 13.9997 18.4175C14.0058 18.31 14.012 18.2025 14.0244 18.095C14.0244 18.0711 14.043 18.0472 14.0615 18.0353C14.5381 17.6112 15.0146 17.1931 15.4912 16.769C16.7352 15.6699 17.9791 14.5769 19.2231 13.4778C19.2602 13.448 19.2912 13.4181 19.3159 13.3823C19.3655 13.3166 19.3407 13.2628 19.2602 13.2449C19.1736 13.227 19.087 13.2389 19.0127 13.2867C18.9384 13.3285 18.8703 13.3703 18.8023 13.4121C16.7166 14.6784 14.6247 15.9507 12.5329 17.2229C12.471 17.2588 12.4215 17.2707 12.3472 17.2468C11.4498 16.978 10.5524 16.7152 9.65504 16.4524C9.5622 16.4225 9.46937 16.4046 9.38891 16.3628C9.19706 16.2732 9.15992 16.1179 9.27132 15.9447C9.3394 15.8372 9.44461 15.7655 9.5622 15.7177C9.84689 15.6042 10.1316 15.4908 10.4163 15.3892C11.9387 14.8218 13.4612 14.2543 14.9837 13.6869C16.8713 12.9821 18.7651 12.2773 20.6527 11.5784C20.727 11.5485 20.8075 11.5306 20.8879 11.5187C21.2159 11.4649 21.4264 11.7337 21.4697 11.9487C21.5068 12.116 21.4821 12.2773 21.4449 12.4445C21.2098 13.5077 20.9746 14.5769 20.7394 15.6401C20.4856 16.7988 20.2319 17.9516 19.9782 19.1104C19.8482 19.6898 19.7244 20.2692 19.5944 20.8486C19.5697 20.968 19.5264 21.0875 19.4769 21.201C19.3531 21.4518 19.1488 21.5355 18.8703 21.4638C18.7218 21.428 18.5856 21.3623 18.4619 21.2727C17.5707 20.6335 16.6856 19.9944 15.7944 19.3613C15.7759 19.3434 15.7635 19.3374 15.7449 19.3254Z" fill="white"/>
</svg>
