<svg width="43" height="44" viewBox="0 0 43 44" fill="none" xmlns="http://www.w3.org/2000/svg">
<rect x="0.5" y="0.634766" width="42" height="42" rx="21" stroke="#474747"/>
<path d="M14 28.9947C14 28.9542 14 28.9136 14 28.8934C14.0608 28.6704 14.1419 28.4475 14.2027 28.2245C14.527 27.2517 14.8514 26.2586 15.1757 25.2857C15.1959 25.2452 15.1959 25.2047 15.1757 25.1641C15.1149 25.0628 15.0743 24.9614 15.0135 24.8601C14.3446 23.5427 14.1216 22.1442 14.2838 20.6647C14.3649 19.9351 14.5473 19.2257 14.8514 18.5568C15.6622 16.7733 16.9595 15.4964 18.7432 14.7263C19.5743 14.3614 20.4662 14.1588 21.3784 14.1385C22.0676 14.1182 22.777 14.179 23.4459 14.3614C25.5541 14.9492 27.1554 16.1653 28.1689 18.111C28.6351 19.0027 28.9189 19.9553 28.9797 20.9484C28.9797 20.9687 28.9797 20.989 29 21.0092C29 21.2727 29 21.5565 29 21.8199C29 21.8402 29 21.8808 28.9797 21.901C28.9595 22.1442 28.9595 22.3672 28.9189 22.6104C28.6959 24.0494 28.0878 25.3263 27.1149 26.4207C25.2905 28.488 22.5135 29.3393 19.8581 28.6907C19.3311 28.5691 18.8243 28.3664 18.3378 28.1435C18.2973 28.1232 18.2365 28.1232 18.1959 28.1232C17.5068 28.3056 16.7973 28.488 16.1081 28.6704C15.5203 28.8123 14.9527 28.9542 14.3649 29.1163C14.2027 29.1569 14.0811 29.1366 14 28.9947ZM24.0135 26.137C24.3784 26.1572 24.7635 26.0356 25.1081 25.833C25.5946 25.5492 25.9797 25.1641 26.3243 24.7385C26.3851 24.6574 26.4257 24.5561 26.4662 24.4548C26.5473 24.1305 26.4662 23.8467 26.2635 23.5832C26.0203 23.2792 25.7568 23.036 25.4527 22.8131C25.1892 22.6104 24.9257 22.4077 24.6216 22.2861C24.277 22.1442 23.9527 22.1442 23.6892 22.4685C23.5878 22.5901 23.5068 22.6915 23.4054 22.7928C23.2838 22.9144 23.1622 23.036 23 23.1171C22.7973 23.1982 22.5946 23.1982 22.4122 23.036C21.9257 22.5699 21.4392 22.124 20.973 21.6375C20.6689 21.3335 20.3851 21.0295 20.1014 20.7052C19.9595 20.5634 19.9392 20.3809 20 20.1783C20.0608 19.9959 20.1622 19.854 20.3243 19.7324C20.4459 19.631 20.5676 19.5297 20.6892 19.4081C20.8716 19.246 20.973 19.0433 20.9324 18.8001C20.9122 18.6785 20.8716 18.5366 20.8108 18.415C20.5068 17.8677 20.1622 17.3813 19.6959 16.976C19.5946 16.8746 19.473 16.7936 19.3514 16.7328C19.027 16.5503 18.6014 16.6111 18.3378 16.8341C18.0541 17.0773 17.7905 17.3408 17.5473 17.6448C17.3243 17.9286 17.1216 18.2528 17.0405 18.6177C16.9189 19.1649 16.9797 19.6918 17.1824 20.2188C17.4459 20.8268 17.8108 21.3741 18.277 21.8402C19.2703 22.8536 20.2838 23.8467 21.277 24.8398C21.6419 25.2047 22.0473 25.4884 22.4932 25.7519C22.9595 25.9951 23.4459 26.137 24.0135 26.137Z" fill="#999999"/>
</svg>
