<svg width="33" height="33" viewBox="0 0 33 33" fill="none" xmlns="http://www.w3.org/2000/svg">
<rect width="33" height="33" rx="16.5" fill="#7BB961"/>
<path d="M10.7437 22.1493C10.7437 22.1182 10.7437 22.087 10.7437 22.0715C10.7903 21.9004 10.8525 21.7293 10.8992 21.5582C11.1481 20.8116 11.397 20.0494 11.6459 19.3028C11.6615 19.2717 11.6615 19.2406 11.6459 19.2095C11.5992 19.1317 11.5681 19.054 11.5215 18.9762C11.0081 17.9652 10.837 16.8919 10.9614 15.7565C11.0237 15.1965 11.1637 14.6521 11.397 14.1388C12.0193 12.77 13.0149 11.7901 14.3838 11.199C15.0216 10.9191 15.7061 10.7635 16.4061 10.748C16.935 10.7324 17.4795 10.7791 17.9929 10.9191C19.6107 11.3701 20.8397 12.3034 21.6175 13.7966C21.9753 14.481 22.1931 15.2121 22.2397 15.9742C22.2397 15.9898 22.2397 16.0053 22.2553 16.0209C22.2553 16.2231 22.2553 16.4408 22.2553 16.643C22.2553 16.6586 22.2553 16.6897 22.2397 16.7053C22.2242 16.8919 22.2242 17.063 22.1931 17.2497C22.0219 18.354 21.5552 19.3339 20.8085 20.1739C19.4085 21.7604 17.2773 22.4137 15.2394 21.916C14.8349 21.8226 14.446 21.6671 14.0727 21.496C14.0416 21.4804 13.9949 21.4804 13.9638 21.4804C13.4349 21.6204 12.8904 21.7604 12.3615 21.9004C11.9104 22.0093 11.4748 22.1182 11.0237 22.2426C10.8992 22.2737 10.8059 22.2581 10.7437 22.1493ZM18.4284 19.9561C18.7085 19.9717 19.004 19.8783 19.2685 19.7228C19.6418 19.505 19.9374 19.2095 20.2019 18.8829C20.2485 18.8206 20.2796 18.7429 20.3107 18.6651C20.373 18.4162 20.3107 18.1985 20.1552 17.9963C19.9685 17.763 19.7663 17.5763 19.5329 17.4052C19.3307 17.2497 19.1285 17.0941 18.8951 17.0008C18.6307 16.8919 18.3818 16.8919 18.1795 17.1408C18.1018 17.2341 18.0395 17.3119 17.9618 17.3897C17.8684 17.483 17.7751 17.5763 17.6506 17.6385C17.4951 17.7007 17.3395 17.7007 17.1995 17.5763C16.8261 17.2186 16.4528 16.8764 16.095 16.5031C15.8617 16.2697 15.6439 16.0364 15.4261 15.7876C15.3172 15.6787 15.3016 15.5387 15.3483 15.3832C15.395 15.2432 15.4728 15.1343 15.5972 15.041C15.6905 14.9632 15.7839 14.8854 15.8772 14.7921C16.0172 14.6677 16.095 14.5121 16.0639 14.3255C16.0483 14.2321 16.0172 14.1233 15.9706 14.0299C15.7372 13.61 15.4728 13.2367 15.115 12.9256C15.0372 12.8478 14.9438 12.7856 14.8505 12.7389C14.6016 12.5989 14.2749 12.6456 14.0727 12.8167C13.8549 13.0033 13.6527 13.2056 13.466 13.4389C13.2949 13.6566 13.1393 13.9055 13.0771 14.1855C12.9838 14.6054 13.0304 15.0098 13.186 15.4143C13.3882 15.8809 13.6682 16.3009 14.026 16.6586C14.7883 17.4363 15.5661 18.1985 16.3283 18.9606C16.6084 19.2406 16.9195 19.4584 17.2617 19.6606C17.6195 19.8472 17.9929 19.9561 18.4284 19.9561Z" fill="white"/>
</svg>
